<?xml version="1.0" encoding="utf-8"?>
<!-- Generator: Adobe Illustrator 24.0.0, SVG Export Plug-In . SVG Version: 6.00 Build 0)  -->
<svg version="1.1" id="图层_1" xmlns="http://www.w3.org/2000/svg" xmlns:xlink="http://www.w3.org/1999/xlink" x="0px" y="0px"
	 viewBox="0 0 1327.99 183.27" style="enable-background:new 0 0 1327.99 183.27;" xml:space="preserve">
<style type="text/css">
	.st0{fill:#006436;}
</style>
<path class="st0" d="M88.56,1.2h4.9c11.06,0.34,22.08,2.6,32.31,6.85c8.81,3.64,17.04,8.68,24.3,14.86
	c1.94,1.69,3.97,3.33,5.42,5.48c5.43,6.15,8.46,14.36,8.2,22.57c-0.17,9.2-4.47,18.21-11.49,24.16c-5.65,4.87-13.01,7.71-20.47,7.88
	c-6.77,0.2-13.59-1.76-19.2-5.55c-6.28-4.19-11.04-10.61-13.19-17.86c-2.08-6.94-1.8-14.57,0.84-21.33
	c1.46-3.78,3.65-7.26,6.36-10.27c-10.03,1.4-19.73,5.21-27.96,11.12c-9.62,6.86-17.25,16.49-21.69,27.45
	c-4.19,10.28-5.54,21.68-3.94,32.66c1.98,13.97,8.92,27.15,19.25,36.75c2.24,2.01,4.42,4.07,6.73,6c3.3,2.63,6.77,5.31,8.79,9.12
	c2.23,4.12,1.44,9.5-1.69,12.94c1.05,1.04,2.1,2.09,3.14,3.14c3.64-3.11,6.52-7.2,7.91-11.8c1.5-6.39,1.99-13.07,1.03-19.57
	c-0.78-5.26-2.45-10.37-4.86-15.1c-1.83-3.51-3.7-7-5.64-10.46c-1.94-3.54-4.03-7.02-5.66-10.72c-0.86-1.86-1.53-3.8-2.27-5.71
	c-3.46-9.36-3.8-19.85-0.96-29.42c2.68-9.11,8.26-17.31,15.69-23.2C87.77,48.21,83.43,57.38,82.34,67
	c-1.13,9.37,0.77,19.07,5.39,27.3c2.49,4.9,5.16,9.71,8.16,14.32c3.36,5.09,6.32,10.49,8.27,16.29c2.95,8.79,3.34,18.35,1.46,27.4
	c1.42-0.45,2.36-1.66,3.48-2.56c6.83-6.02,12.2-13.72,15.28-22.31c3.69-10.11,4.71-20.98,4.74-31.68
	c12.92,15.08,25.91,30.11,38.9,45.13c-10.03,15.88-25.09,28.53-42.48,35.62c-9.99,4.13-20.73,6.31-31.52,6.75h-5.4
	c-11.6-0.35-23.14-2.83-33.79-7.48c-9.63-4.17-18.52-10.04-26.16-17.23c-10.61-9.96-18.79-22.49-23.58-36.24
	C1.96,113.45,0.31,104.1,0,94.72V89.8c0.34-11.13,2.63-22.21,6.93-32.49c7.14-17.26,19.76-32.17,35.57-42.11
	C56.22,6.48,72.32,1.66,88.56,1.2"/>
<path d="M330.32,155.19l4.27-12.02l4.36,12.02H330.32z M350.65,167.98l-12.63-32.36h-6.73l-12.28,32.36h6.78l2.6-7.32h12.59
	l2.73,7.32H350.65z M288.58,167.98h5.9v-21.11h0.09l12.59,21.11h6.38v-32.36h-5.9v21.6h-0.09l-12.81-21.6h-6.16V167.98z
	 M273.81,167.98h6.34v-32.36h-6.34V167.98z M240.34,167.98h6.34v-14.15h12.45v14.15h6.34v-32.36h-6.34v12.75h-12.45v-12.75h-6.34
	V167.98z M226.63,156.09c-0.79,3.53-2.73,6.82-6.95,6.82c-2.82,0-4.93-1.36-6.07-3.16c-1.32-2.08-1.67-5.11-1.67-8.14
	c0-2.08,0-10.94,7.83-10.94c3.26,0,5.85,1.9,6.65,5.42l6.29-1.54c-0.62-2.26-1.41-4.16-2.99-5.79c-3.48-3.53-7.88-3.71-9.64-3.71
	c-10.25,0-14.7,8-14.7,16.99c0,10.08,5.81,16.45,14.35,16.45c10.3,0,12.41-7.91,13.07-10.44L226.63,156.09z"/>
<path d="M571.65,151.8c0-4.75,1.5-11.12,8.75-11.12c7.78,0,8.7,7.37,8.7,11.03c0,9.36-5.35,11.21-8.7,11.21
	c-3.84,0-6.1-2.17-7.16-4.07C572.49,157.54,571.65,155.46,571.65,151.8 M565.07,151.98c0,7.46,3.49,16.54,15.38,16.54
	c11.09,0,15.24-8.23,15.24-16.68c0-9.45-4.99-16.77-15.33-16.77C570.55,135.07,565.07,141.63,565.07,151.98z M552.72,156.09
	c-0.8,3.53-2.74,6.82-6.98,6.82c-2.83,0-4.95-1.36-6.1-3.16c-1.33-2.08-1.68-5.11-1.68-8.14c0-2.08,0-10.94,7.87-10.94
	c3.27,0,5.88,1.9,6.67,5.42l6.32-1.54c-0.62-2.26-1.41-4.16-3-5.79c-3.49-3.53-7.91-3.71-9.68-3.71c-10.3,0-14.76,8-14.76,16.99
	c0,10.08,5.83,16.45,14.4,16.45c10.34,0,12.46-7.91,13.12-10.44L552.72,156.09z M518.76,156.09c-0.8,3.53-2.74,6.82-6.98,6.82
	c-2.83,0-4.95-1.36-6.1-3.16c-1.33-2.08-1.68-5.11-1.68-8.14c0-2.08,0-10.94,7.87-10.94c3.27,0,5.88,1.9,6.67,5.42l6.32-1.54
	c-0.62-2.26-1.41-4.16-3-5.79c-3.49-3.53-7.91-3.71-9.68-3.71c-10.3,0-14.76,8-14.76,16.99c0,10.08,5.83,16.45,14.4,16.45
	c10.34,0,12.46-7.91,13.12-10.44L518.76,156.09z M472.69,155.19l4.29-12.02l4.37,12.02H472.69z M493.11,167.98l-12.68-32.36h-6.76
	l-12.33,32.36h6.8l2.61-7.32h12.64l2.74,7.32H493.11z M442.18,153.96c4.46,0,8.4,0,8.4,4.43c0,0.99-0.27,2.89-2.61,3.75
	c-0.97,0.36-3.67,0.36-5.04,0.36h-5.92v-8.54H442.18z M440.72,141.08c4.6,0,5.35,0,6.27,0.27c1.64,0.45,2.39,1.99,2.39,3.43
	c0,3.44-3.27,3.71-5.43,3.71h-6.94v-7.41H440.72z M430.65,135.62v32.36h10.78c6.72,0,8.75-0.14,10.6-0.95
	c3.4-1.54,5.13-5.24,5.13-8.45c0-1.81-0.57-6.19-6.01-7.82c2.92-1.31,4.46-4.16,4.46-7.01c0-2.89-1.55-5.11-3.4-6.46
	c-2.03-1.49-4.55-1.67-8.93-1.67H430.65z M399.38,151.8c0-4.75,1.5-11.12,8.75-11.12c7.78,0,8.7,7.37,8.7,11.03
	c0,9.36-5.35,11.21-8.7,11.21c-3.84,0-6.1-2.17-7.16-4.07C400.22,157.54,399.38,155.46,399.38,151.8z M392.8,151.98
	c0,7.46,3.49,16.54,15.38,16.54c11.09,0,15.24-8.23,15.24-16.68c0-9.45-4.99-16.77-15.33-16.77
	C398.28,135.07,392.8,141.63,392.8,151.98z M372.98,167.98h6.36v-26.89h9.37v-5.47h-25.1v5.47h9.37V167.98z"/>
<path d="M963.78,168.1h21.94v-5.47h-15.67v-26.89h-6.27V168.1z M938.29,155.31l4.22-12.02l4.31,12.02H938.29z M958.4,168.1
	l-12.5-32.36h-6.66L927.1,168.1h6.71l2.57-7.32h12.45l2.7,7.32H958.4z M896.99,168.1h5.83v-21.11h0.09l12.45,21.11h6.31v-32.36
	h-5.83v21.6h-0.09l-12.67-21.6h-6.1V168.1z M866.05,151.92c0-4.75,1.48-11.12,8.62-11.12c7.66,0,8.58,7.37,8.58,11.03
	c0,9.36-5.27,11.21-8.58,11.21c-3.79,0-6.01-2.17-7.05-4.07C866.88,157.66,866.05,155.58,866.05,151.92z M859.56,152.1
	c0,7.46,3.44,16.54,15.15,16.54c10.93,0,15.02-8.23,15.02-16.68c0-9.45-4.92-16.77-15.11-16.77
	C864.96,135.19,859.56,141.75,859.56,152.1z M846.48,168.1h6.27v-32.36h-6.27V168.1z M825.12,168.1h6.27V141.2h9.23v-5.47h-24.73
	v5.47h9.23V168.1z M795.92,155.31l4.22-12.02l4.31,12.02H795.92z M816.04,168.1l-12.5-32.36h-6.66l-12.15,32.36h6.71l2.57-7.32
	h12.45l2.7,7.32H816.04z M754.62,168.1h5.83v-21.11h0.09L773,168.1h6.31v-32.36h-5.83v21.6h-0.09l-12.67-21.6h-6.1V168.1z
	 M727.3,141.2h4.92c4.22,0,5.01,0,6.18,0.72c1.18,0.72,1.61,1.99,1.61,3.3c0,0.95-0.22,3.03-2.39,3.8
	c-1.09,0.41-3.74,0.41-5.66,0.41h-4.66V141.2z M721.03,168.1h6.27v-13.51h1.26c4.22,0,4.62,0.63,8.4,6.46l4.53,7.05h7.53l-3.79-6.33
	c-3.13-5.2-4.35-6.37-6.97-7.91v-0.09c1.22-0.14,2.39-0.5,3.48-0.99c3.05-1.31,4.75-4.43,4.75-7.95c0-3.16-1.48-6.87-5.09-8.27
	c-0.96-0.32-2.48-0.81-7.14-0.81h-13.24V168.1z M689.96,168.1h23.69v-5.47h-17.42v-8.77h15.67v-5.47h-15.67v-7.19h16.85v-5.47
	h-23.12V168.1z M668.26,168.1h6.27V141.2h9.23v-5.47h-24.73v5.47h9.23V168.1z M628,168.1h5.83v-21.11h0.09l12.45,21.11h6.31v-32.36
	h-5.83v21.6h-0.09l-12.67-21.6H628V168.1z M613.39,168.1h6.27v-32.36h-6.27V168.1z"/>
<path d="M1087.36,135.66c0,0.04,0.09,0.23,0.13,0.27c1.55,3.44,4.96,10.98,4.96,20.79c0,8.54-2.08,14.42-5.14,21.33h4.12
	c3.46-5.06,6.87-12.29,6.87-21.15c0-7.5-2.7-14.96-6.78-21.24H1087.36z M1055.12,168.57h6.38v-9.76l5.23-5.42l8.73,15.19h8.29
	l-12.59-19.75l11.92-12.61h-8.6l-12.98,14.37v-14.37h-6.38V168.57z M1021.06,168.57h6.38v-14.15h12.54v14.15h6.38v-32.36h-6.38
	v12.74h-12.54v-12.74h-6.38V168.57z M1014.17,178.06c0-0.05-0.09-0.23-0.13-0.27c-1.55-3.44-4.96-10.98-4.96-20.79
	c0-8.54,2.08-14.42,5.14-21.33h-4.12c-3.46,5.06-6.87,12.29-6.87,21.15c0,7.5,2.7,14.96,6.78,21.24H1014.17z"/>
<path d="M1201.63,162.38v6.19h2.92c-0.09,3.53-2.3,4.25-3.46,4.66l1.2,2.58c5.41-1.99,5.41-6.19,5.41-8.99v-4.43H1201.63z
	 M1187.38,168.57h6.07v-6.19h-6.07V168.57z M1156.2,152.39c0-4.75,1.51-11.12,8.77-11.12c7.8,0,8.73,7.37,8.73,11.03
	c0,9.36-5.36,11.21-8.73,11.21c-3.86,0-6.12-2.17-7.18-4.07C1157.04,158.13,1156.2,156.05,1156.2,152.39z M1149.6,152.57
	c0,7.46,3.5,16.54,15.42,16.54c11.12,0,15.29-8.23,15.29-16.68c0-9.45-5.01-16.77-15.38-16.77
	C1155.09,135.66,1149.6,142.22,1149.6,152.57z M1137.21,156.68c-0.8,3.53-2.75,6.82-7,6.82c-2.84,0-4.96-1.36-6.12-3.16
	c-1.33-2.08-1.68-5.11-1.68-8.14c0-2.08,0-10.94,7.89-10.94c3.28,0,5.89,1.9,6.69,5.42l6.34-1.54c-0.62-2.26-1.42-4.16-3.01-5.78
	c-3.5-3.53-7.93-3.71-9.71-3.71c-10.33,0-14.8,8-14.8,16.99c0,10.08,5.85,16.45,14.45,16.45c10.37,0,12.5-7.91,13.16-10.44
	L1137.21,156.68z"/>
<path d="M1320.99,168.57h6.07v-6.19h-6.07V168.57z M1296.37,141.68c6.2,0,10.72,0,10.72,10.76c0,10.4-3.9,10.67-8.82,10.67h-4.79
	v-21.42H1296.37z M1287.11,136.21v32.36h12.01c2.04,0,7.31,0,10.55-3.62c4.03-4.47,4.03-10.3,4.03-12.25c0-6.33-1.6-9.31-2.66-11.03
	c-3.41-5.47-8.64-5.47-12.23-5.47H1287.11z M1265.02,168.57h6.38v-26.89h9.4v-5.47h-25.17v5.47h9.4V168.57z M1232.11,168.57h22.34
	v-5.47h-15.95v-26.89h-6.38V168.57z"/>
<path d="M236.21,61.5c-0.51,0-1.15,0.13-1.92,0.38c-0.77,0.26-1.66,0.58-2.7,0.97c-1.02,0.38-2.06,0.58-3.08,0.58
	c-0.77,0.26-1.55,0.38-2.32,0.38c0-0.77-0.13-1.6-0.39-2.5c-0.25-0.9-0.51-1.99-0.76-3.27c-0.26-1.28-0.46-2.45-0.59-3.47
	c-0.12-1.04-0.31-1.81-0.58-2.32l12.34-2.3V61.5z M249.32,46.84l14.65-2.32l0.77,0.77c-0.26,0.53-0.53,1.28-0.77,2.32
	c-0.26,1.02-0.58,2.19-0.97,3.47c-0.38,1.28-0.77,2.37-1.15,3.27c-0.39,0.9-0.71,1.74-0.97,2.5c-0.51,0.26-1.28,0.59-2.3,0.97
	c-1.04,0.39-2.19,0.71-3.47,0.97c-1.28,0.25-2.38,0.44-3.29,0.58c-0.89,0.13-1.73,0.31-2.5,0.58V46.84z M253.94,25.26
	c-0.25-1.04-0.95-2.19-2.12-3.47c-1.15-1.28-2.75-2.45-4.8-3.47c-2.06-1.04-3.87-1.68-5.41-1.92c-1.53-0.26-2.81-0.39-3.85-0.39
	l-0.77,0.77l-2.3,0.77c0.25,0.51,0.44,1.28,0.58,2.3c0.12,1.04,0.25,2.32,0.38,3.87c0.13,1.55,0.2,2.83,0.2,3.85
	c0.25,1.28,0.38,2.32,0.38,3.09v7.7c-0.77,0.26-1.66,0.53-2.7,0.77c-1.02,0.26-2.25,0.59-3.65,0.97c-1.41,0.38-2.58,0.64-3.47,0.77
	c-0.9,0.13-1.74,0.31-2.52,0.58c-1.02,0.51-2.3,0.64-3.85,0.38c-1.79,0-3.73-0.25-5.79-0.76c-2.3-0.53-4.11-0.53-5.39,0
	c-1.55,0.51-2.7,1.4-3.47,2.7c0.26,0.76,0.53,1.66,0.77,2.7c0.51,1.28,1.15,2.7,1.92,4.23c0.77,1.55,1.48,2.96,2.12,4.24
	c0.64,1.28,1.17,2.45,1.55,3.47c0.38,1.04,0.97,2.32,1.73,3.87c0.53,1.79,1.3,3.72,2.32,5.77c1.04,2.32,2.19,4.11,3.47,5.39
	c1.04,1.55,2.06,2.7,3.09,3.47c0.76-0.25,1.79-0.51,3.08-0.77c1.04-0.51,2.32-1.09,3.85-1.73c1.55-0.64,2.96-1.1,4.24-1.35
	c1.04-0.51,1.92-0.77,2.7-0.77c0,0.26,0,0.51,0,0.77c0,0.25,0,0.58,0,0.95c0,0.39,0,0.66,0,0.77c0,0.13,0,0.33,0,0.58
	c0.26,2.06,0.39,4.64,0.39,7.71c0,3.09,0,6.68,0,10.79c0,4.11,0.25,7.71,0.77,10.81c0.51,3.08,1.15,5.64,1.92,7.71h1.55
	c0.51-0.26,1.09-0.66,1.73-1.17c0.64-0.51,1.48-1.15,2.5-1.92c1.04-1.04,1.94-1.79,2.7-2.32c0.77-0.77,1.3-1.28,1.55-1.53
	c0-2.06,0-4.51,0-7.34c0-3.08,0-6.61,0-10.59s0-7.45,0-10.41s0-5.33,0-7.14c0.26,0,0.64,0,1.15,0c0.26-0.25,0.71-0.44,1.35-0.58
	c0.66-0.13,1.23-0.2,1.74-0.2c0.51,0,0.9,0,1.15,0c0.77-0.51,1.68-0.89,2.7-1.15c1.04-0.25,2.25-0.38,3.67-0.38
	c1.41,0,2.76,0.13,4.05,0.38c1.04,0,1.92,0.07,2.7,0.2c0.77,0.13,1.68-0.07,2.7-0.58c1.04-0.53,1.74-1.35,2.12-2.52
	c0.39-1.15,0.39-2.3,0-3.47c-0.38-1.15-0.95-1.99-1.73-2.5c0.51-0.51,1.02-1.09,1.53-1.73c0.53-0.64,1.17-1.41,1.94-2.32
	c0.76-0.9,1.46-1.68,2.11-2.32c0.66-0.64,1.1-1.09,1.37-1.35c1.02-0.51,1.92-1.09,2.7-1.73c0.76-0.64,1.15-1.61,1.15-2.89
	c0-1.02-0.26-2.06-0.77-3.08c-0.51-1.04-1.02-1.81-1.55-2.32c-0.51-0.51-1.28-1.28-2.3-2.32c-1.04-0.77-2.32-1.79-3.87-3.08
	c-1.53-1.04-2.83-1.92-3.85-2.7c-1.28-0.51-2.32-0.9-3.09-1.17c-0.76,0.26-1.86,0.66-3.27,1.17c-1.41,0.51-3.01,0.89-4.82,1.15
	c-1.79,0.51-3.34,0.84-4.62,0.97c-1.28,0.13-2.43,0.31-3.47,0.58c0-0.26,0-0.44,0-0.58c0-0.13,0-0.2,0-0.2
	c0-0.51-0.07-1.15-0.2-1.92c-0.13-0.77,0.07-1.68,0.58-2.7c0.26-1.04,0.77-1.92,1.55-2.7c0.77-0.77,1.41-1.41,1.92-1.94
	c0-0.25,0-0.44,0-0.58C253.94,25.33,253.94,25.26,253.94,25.26z"/>
<path d="M350.91,64.57c0-0.51-0.07-1.22-0.2-2.12c-0.13-0.89-0.26-1.92-0.38-3.08c-0.13-1.15-0.26-2.12-0.39-2.89
	c-0.13-0.77-0.31-1.41-0.58-1.92c0.51-0.26,1.04-0.44,1.55-0.58c0.51-0.13,1.09-0.26,1.73-0.39c0.64-0.13,1.22-0.31,1.74-0.58
	c0.51-0.26,0.89-0.51,1.15-0.77c0,0.51,0,1.17,0,1.92c0,0.77,0.13,1.68,0.38,2.7c0,1.04,0.13,1.94,0.39,2.71
	c0.26,0.76,0.51,1.4,0.77,1.92L350.91,64.57z M312.36,63.8c1.28-0.77,2.32-1.99,3.09-3.65c0.76-1.68,0.64-3.54-0.39-5.59
	c-1.02-2.06-2.43-3.47-4.24-4.24c-1.79-0.77-3.34-1.15-4.62-1.15c0,0.25-0.07,0.51-0.2,0.77c-0.13,0.25-0.13,0.58,0,0.95
	c0.13,0.39,0.2,0.77,0.2,1.17c0,0.38,0,0.69,0,0.95c0.26,0.51,0.51,1.28,0.77,2.32c0.26,1.02,0.64,2.12,1.15,3.27
	c0.51,1.15,1.04,2.19,1.55,3.08c0.51,0.9,0.9,1.61,1.15,2.12c0.26,0,0.46,0,0.58,0c0.13,0,0.33,0,0.59,0
	C312.23,63.8,312.36,63.8,312.36,63.8z M360.16,50.69l5.39-3.08c0.26,0.51,0.39,1.28,0.39,2.32c0,1.02,0,2.17,0,3.47
	c-0.26,1.02-0.46,1.99-0.58,2.88c-0.13,0.9-0.33,1.61-0.58,2.12c-0.26,0-0.53,0.13-0.77,0.39c-0.53,0.25-1.04,0.51-1.55,0.77
	c-0.51,0.25-0.9,0.51-1.15,0.76c-0.53,0-0.9,0.13-1.17,0.39c0.26-0.51,0.46-1.22,0.58-2.12c0.13-0.9,0.26-1.92,0.39-3.09
	c0.13-1.15,0.07-2.11-0.2-2.88C360.68,51.86,360.42,51.22,360.16,50.69z M371.72,45.3l6.17-0.77c0,0.53-0.12,1.3-0.38,2.32
	c-0.26,1.04-0.51,2.19-0.77,3.47c-0.26,1.28-0.44,2.38-0.58,3.27c-0.13,0.9-0.33,1.74-0.58,2.52l-6.17,0.76
	c0.25-0.76,0.44-1.6,0.58-2.5c0.13-0.9,0.31-1.99,0.58-3.27c0.26-1.28,0.51-2.45,0.77-3.47C371.6,46.58,371.72,45.82,371.72,45.3z
	 M339.35,39.9c-0.26-0.51-0.71-0.89-1.35-1.15c-0.64-0.26-1.35-0.51-2.12-0.77c-0.77,0-1.41-0.07-1.92-0.2
	c-0.53-0.12-1.04-0.18-1.55-0.18l-1.55,3.08l0.77,1.55c0,0.77-0.13,1.79-0.39,3.08c-0.25,1.28-0.64,2.76-1.15,4.44
	c-0.51,1.66-0.9,3.14-1.15,4.42c-0.26,1.3-0.39,2.45-0.39,3.47c0.77-1.02,1.81-2.3,3.09-3.85c1.28-1.55,2.57-3.27,3.85-5.2
	c1.28-1.94,2.25-3.6,2.89-5.02C339.02,42.16,339.35,40.94,339.35,39.9z M329.32,29.89c-0.51-0.77-1.28-1.55-2.3-2.32
	c-1.04-0.77-2.32-1.55-3.86-2.3c-1.53-0.53-2.83-1.04-3.85-1.55c-1.28-0.51-2.32-1.04-3.09-1.55l-0.76,3.85
	c0.25,0.77,0.51,1.68,0.76,2.71c0.26,1.02,0.53,2.24,0.77,3.65c0.26,1.41,0.46,2.7,0.58,3.87c0.13,1.15,0.2,2.11,0.2,2.88
	c-0.25,2.58-0.38,5.79-0.38,9.64c-0.26,3.87-0.53,8.49-0.77,13.88c-0.51,5.15-1.15,9.77-1.92,13.88c-1.04,3.85-2.06,7.06-3.09,9.64
	c-0.51,0.77-0.95,1.73-1.35,2.89c-0.38,1.15-0.9,2.57-1.55,4.23c-0.64,1.68-1.35,3.03-2.12,4.05c-0.76,1.04-1.66,1.94-2.7,2.71
	l1.55,2.3c0.26-0.26,0.39-0.38,0.39-0.38c0.25-0.26,0.58-0.53,0.95-0.77c0.39-0.26,0.71-0.51,0.97-0.77
	c0.25-0.26,0.51-0.39,0.77-0.38c2.57-1.3,5.13-3.22,7.7-5.79c2.58-2.57,4.57-5.97,5.99-10.21c1.41-4.24,2.3-7.98,2.7-11.18
	c0.38-3.21,0.84-5.72,1.35-7.52c0.51,0.77,0.95,1.68,1.35,2.7c0.38,1.04,0.84,2.25,1.35,3.67c0.51,1.41,1.15,2.57,1.92,3.47
	c0.77,0.89,1.55,1.73,2.32,2.5c0.25-0.26,0.44-0.44,0.58-0.58c0.13-0.13,0.31-0.26,0.58-0.38c0.26-0.13,0.38-0.26,0.38-0.39
	c0-0.13,0-0.2,0-0.2c1.04-1.28,1.68-2.63,1.94-4.05c0.25-1.41-0.39-2.89-1.94-4.42c-1.53-1.28-3.14-2.32-4.82-3.09
	c-1.66-0.77-2.88-1.28-3.65-1.55c0.25-1.79,0.51-4.11,0.77-6.92c0-2.83,0.12-6.05,0.38-9.64c0-3.86,0.26-7.07,0.77-9.64
	C328.43,34,328.81,31.68,329.32,29.89z M374.81,26.79c0.51-0.51,1.15-1.09,1.92-1.73c0.77-0.64,1.48-1.41,2.12-2.32
	c0.64-0.89,1.15-1.73,1.55-2.5c0.38-0.77,0.58-1.41,0.58-1.92c-0.26-0.53-0.71-0.97-1.35-1.35c-0.64-0.39-1.35-0.64-2.12-0.77
	c-0.77-0.13-1.41-0.2-1.92-0.2c-0.51,0-1.04,0-1.55,0c-1.28,0.26-2.83,0.58-4.62,0.97c-1.81,0.38-3.93,0.89-6.37,1.53
	c-2.43,0.66-4.49,1.1-6.17,1.35c-1.68,0.26-3.14,0.53-4.42,0.77v1.55c0.51,0.51,0.89,1.15,1.15,1.92c0.25,0.77,0.64,1.68,1.15,2.7
	c0.26,1.04,0.71,1.99,1.35,2.89c0.64,0.9,1.22,1.74,1.74,2.5c0.51,0,1.15-0.12,1.92-0.38c0.77,0,1.66-0.2,2.7-0.58
	c1.02-0.39,1.92-0.71,2.7-0.97c0.77-0.25,1.41-0.38,1.92-0.38l-0.77,7.71l-3.85,1.53c-0.26-0.51-0.64-1.02-1.15-1.53
	c-0.53-0.53-1.17-1.04-1.94-1.55c-0.76-0.26-1.46-0.51-2.12-0.77c-0.64-0.26-1.22-0.51-1.73-0.77v2.32
	c0.26,0.25,0.38,0.51,0.38,0.77c0,0.51,0,0.95,0,1.35c0,0.38,0.07,0.71,0.2,0.95c0.13,0.26,0.2,0.46,0.2,0.58
	c0,0.13-0.07,0.2-0.2,0.2c-0.13,0-0.25,0.07-0.38,0.2c-0.13,0.13-0.26,0.25-0.39,0.38c-0.13,0.13-0.31,0.2-0.58,0.2
	c-0.77,0.26-1.66,0.64-2.7,1.15c-1.28,0.53-2.7,1.17-4.24,1.92c-1.53,0.77-2.94,1.23-4.24,1.37c-1.28,0.12-2.43,0.18-3.45,0.18
	l-3.09,3.87l3.85,4.62v0.77c0.53,1.02,1.04,2.3,1.55,3.85c0.77,1.79,1.68,3.8,2.7,5.97c1.04,2.19,2.19,4.05,3.47,5.59
	c1.28,1.55,2.57,2.83,3.87,3.87l6.17-0.77l0.76,2.3v3.09c-0.76,0.25-1.66,0.51-2.7,0.77c-1.02,0.51-2.24,1.02-3.65,1.53
	c-1.41,0.53-2.58,1.04-3.47,1.55c-0.9,0.51-1.74,1.04-2.52,1.55c0.26,0.51,0.59,1.15,0.97,1.92c0.38,0.77,0.97,1.68,1.73,2.7
	c0.77,1.04,1.55,1.88,2.32,2.52c0.77,0.64,1.41,1.09,1.92,1.35c0.26,0,0.64,0,1.17,0c0.25,0,0.64,0.07,1.15,0.18
	c0.51,0.13,1.02,0.33,1.55,0.58c0.25,0,0.51,0,0.77,0c0,0.26,0,0.59,0,0.97c0,0.39,0,0.97,0,1.74c0,0.76,0,1.4,0,1.92
	c0,0.51,0,1.02,0,1.55c-0.77-0.02-1.81,0.05-3.09,0.18c-1.28,0.13-2.76,0.33-4.44,0.58c-1.66,0.26-3.01,0.53-4.05,0.77
	c-1.28,0.26-2.3,0.51-3.08,0.77l-1.55,2.32c0.26,0.25,0.39,0.77,0.39,1.55c0.25,0.51,0.64,1.28,1.15,2.3
	c0.51,0.77,1.02,1.55,1.55,2.32c0.51,0.51,1.02,1.02,1.53,1.55c2.32-0.26,5.28-0.53,8.87-0.77c3.36-0.53,7.34-0.9,11.96-1.17
	c4.62-0.25,8.73-0.25,12.34,0c3.34,0.26,6.17,0.64,8.49,1.17c0.51-0.26,1.02-0.64,1.53-1.17c0.53-0.51,0.9-1.02,1.17-1.53
	c0.51-0.77,0.77-1.41,0.77-1.94c0.25-0.77,0.38-1.28,0.38-1.53c0.26-0.77,0.38-1.55,0.38-2.32c-0.25-0.77-0.76-1.68-1.53-2.7
	c-1.04-1.04-1.92-1.79-2.7-2.32c-1.04-0.77-1.81-1.41-2.32-1.92c-0.77,0.26-1.68,0.51-2.7,0.77c-1.28,0.26-2.7,0.44-4.24,0.58
	c-1.55,0.13-2.96,0.2-4.24,0.2c-1.28,0-2.43,0-3.47,0l0.77-7.71c0.77-0.51,1.81-1.09,3.09-1.73c1.28-0.64,2.63-1.61,4.05-2.89
	c1.41-1.28,2.3-2.57,2.7-3.87c0.38-1.28,0.51-2.37,0.38-3.27c-0.11-0.89-0.58-1.86-1.35-2.89c-0.77-1.02-1.92-1.66-3.47-1.92
	c-1.53-0.25-2.88-0.13-4.05,0.39c-1.15,0.51-2.12,1.02-2.88,1.53c0-0.51,0-1.02,0-1.53c0-0.53,0-1.1,0-1.74c0-0.64,0-1.22,0-1.73
	c0-0.51,0-0.9,0-1.17c0.25,0,0.44,0,0.58,0c0.12,0,0.31-0.05,0.58-0.18c0.25-0.13,0.51-0.26,0.77-0.39
	c0.25-0.12,0.38-0.18,0.38-0.18c0.51-0.26,1.15-0.46,1.92-0.59c0.77-0.12,1.61-0.18,2.52-0.18c0.89,0,1.66-0.13,2.3-0.39
	c0.64-0.25,1.23-0.64,1.74-1.15c0.77-1.04,1.48-2.38,2.12-4.05c0.64-1.68,1.48-3.6,2.5-5.79c1.04-2.17,2.06-4.05,3.09-5.59
	c1.02-1.53,2.06-2.81,3.08-3.85c1.04-0.77,1.68-1.86,1.92-3.27c0.26-1.41-0.25-2.83-1.55-4.24c-1.28-1.41-2.57-2.37-3.85-2.89
	c-1.55-0.51-2.7-0.64-3.47-0.38c-0.51-0.51-1.28-0.97-2.3-1.35c-1.04-0.39-2.19-0.46-3.47-0.2c-1.3,0.26-2.38,0.51-3.29,0.77
	c-0.89,0.26-1.73,0.51-2.5,0.77c0-0.51,0.13-1.15,0.38-1.92c0.26-0.77,0.66-1.68,1.17-2.7c0.51-1.04,0.71-1.94,0.58-2.7
	C376.03,27.96,375.59,27.32,374.81,26.79z"/>
<path d="M430.7,81.53v-8.47c0-0.51,0-1.15,0-1.92c0-0.77,0-1.68,0-2.7c0-1.04,0-1.88,0-2.52s0-1.09,0-1.35
	c0.26,0.26,0.58,0.71,0.97,1.35c0.38,0.64,0.71,1.41,0.95,2.32c0.26,0.9,0.51,1.66,0.77,2.32c0.26,0.64,0.39,1.22,0.39,1.73
	l3.08,1.55c0.51-0.26,1.04-0.64,1.55-1.17c0.51-0.51,1.02-1.15,1.55-1.92c0.51-0.77,1.02-1.35,1.53-1.73
	c0.53-0.39,1.04-0.58,1.55-0.58c0.77,0.51,1.68,0.76,2.7,0.76c0.77-0.25,1.48-0.95,2.12-2.11c0.64-1.17,0.97-2.25,0.97-3.29
	c0-1.02-0.13-1.79-0.39-2.3c0.26-0.53,0.33-1.17,0.2-1.92c-0.13-0.77-0.44-1.55-0.97-2.32c-0.77-0.77-1.53-1.28-2.3-1.55
	c-0.77-0.25-1.55-0.38-2.32-0.38c-0.26,0.25-0.58,0.64-0.97,1.15c-0.38,0.51-0.95,0.97-1.73,1.35c-0.77,0.39-1.41,0.77-1.92,1.15
	c-0.51,0.39-1.04,0.71-1.55,0.97c-0.26-0.26-0.71-0.58-1.35-0.97c-0.64-0.38-1.35-0.64-2.12-0.76c-0.77-0.13-1.41-0.2-1.92-0.2
	c-0.51,0-1.04,0.13-1.55,0.38c0.26-1.55,0.33-3.34,0.2-5.39c-0.13-2.06-0.13-4.42,0-7.12c0.13-2.71,0.44-5.08,0.95-7.14
	c0.53-2.06,1.17-3.73,1.94-5.02c-0.26-1.02-0.71-2.3-1.35-3.85c-0.64-1.55-1.74-2.96-3.29-4.24c-1.53-1.28-2.94-1.79-4.23-1.55
	c-1.3,0.26-2.45,0.9-3.47,1.92c0,1.04,0,2.32,0,3.87s0.07,3.47,0.18,5.77c0.13,2.32,0.26,4.31,0.39,5.99
	c0.13,1.66,0.2,3.14,0.2,4.42v6.17v7.71v8.49c0,1.28,0,2.81,0,4.62c0,2.06,0,4.36,0,6.94c0,2.57,0,4.75,0,6.55c0,2.06,0,3.73,0,5.02
	l-0.77,4.62c0,0.51,0.25,1.28,0.77,2.32c0.25,1.28,1.02,2.57,2.3,3.85c1.04,1.28,2.19,1.92,3.47,1.92c1.04,0.26,1.92,0.13,2.7-0.38
	c2.32-0.77,5.02-1.41,8.09-1.92c3.34-0.77,7.07-1.28,11.18-1.55c4.38-0.51,8.16-0.64,11.37-0.39c3.22,0.26,5.86,0.53,7.91,0.77
	c1.02-0.25,2.06-0.12,3.08,0.39c1.04,0.51,1.74,1.41,2.12,2.7c0.39,1.28,0.58,2.57,0.58,3.85c0.26,1.04,0.39,1.81,0.39,2.32
	l3.85,2.32l5.39-1.55c0-0.26,0.07-0.58,0.2-0.97c0.13-0.38,0.26-0.84,0.39-1.35c0.11-0.51,0.18-0.9,0.18-1.15c0-0.26,0-0.39,0-0.39
	c0.53-0.51,1.17-1.02,1.92-1.53c0.53-0.77,1.04-1.55,1.55-2.32c0.51-1.04,0.9-1.79,1.17-2.32c0-0.77,0-1.28,0-1.53
	c0-3.36,0-7.47,0-12.34c-0.26-5.15-0.53-10.99-0.77-17.55c-0.26-6.55-0.53-12.27-0.77-17.15c-0.26-4.89-0.51-9-0.77-12.34
	c-0.26-1.02-0.33-2.3-0.2-3.85c0.13-1.55,0.51-3.34,1.15-5.39c0.66-2.06,0.84-3.87,0.59-5.39c-0.26-1.55-0.77-2.83-1.55-3.87
	c-0.77-0.51-1.92-1.15-3.47-1.92c-1.28-0.51-2.76-1.09-4.44-1.73c-1.66-0.64-3.14-1.1-4.42-1.35c-1.28-0.26-2.32-0.39-3.09-0.39
	c-0.76,0.26-1.66,0.51-2.7,0.77c-1.02,0.26-2.3,0.38-3.85,0.38c-1.28,0.26-2.38,0.39-3.27,0.39c-0.9,0-1.74,0-2.52,0
	c-1.28,0-2.81,0.25-4.62,0.77c-1.79,0.51-3.91,1.02-6.37,1.53c-2.43,0.53-4.62,0.84-6.55,0.97c-1.92,0.13-3.54,0.07-4.82-0.2
	l-1.55,2.32c0.53,1.02,1.41,2.19,2.7,3.47c1.04,1.28,2.58,2.32,4.64,3.08c2.06,0.77,3.85,1.04,5.39,0.77
	c1.53-0.25,2.7-0.64,3.47-1.15c1.28-0.26,2.76-0.77,4.42-1.55c1.68-0.77,3.67-1.6,5.97-2.5c2.32-0.9,4.38-1.41,6.17-1.55
	c1.81-0.13,3.22-0.07,4.24,0.2l0.77,3.08h-0.77c0.26,1.04,0.46,2.45,0.58,4.24c0.13,1.81,0.2,3.8,0.2,5.97c0,2.19,0,4.11,0,5.79
	c0,1.68,0,3.03,0,4.05l-0.77,0.77c0.26,2.06,0.46,4.62,0.58,7.71c0.13,3.08,0.26,6.81,0.39,11.17c0.13,4.38,0.25,8.17,0.38,11.38
	c0.13,3.21,0.2,5.97,0.2,8.29c-0.77-0.77-1.68-1.81-2.7-3.09c-0.77-1.02-1.61-2.3-2.5-3.85c-0.9-1.55-1.61-2.96-2.12-4.24
	c-0.53-1.02-0.9-1.92-1.17-2.7c-0.25-0.77-0.51-1.86-0.76-3.27c-0.26-1.41-0.07-2.96,0.58-4.62c0.64-1.68,1.41-3.03,2.3-4.06
	c0.9-1.02,1.74-1.66,2.52-1.92c0.25-0.77,0.31-1.66,0.18-2.7c-0.12-1.02-0.71-1.99-1.73-2.89c-1.04-0.89-2.06-1.46-3.09-1.73
	c-1.02,0-1.79,0.13-2.3,0.38c-0.51,0.26-0.97,0.71-1.35,1.35c-0.39,0.64-0.71,1.48-0.97,2.52c-0.25,1.02-0.38,1.92-0.38,2.7
	c0,0.77-0.13,1.41-0.39,1.92c-0.25-0.77-0.51-1.55-0.77-2.32c-0.51-1.02-0.95-2.24-1.35-3.65c-0.38-1.41-0.71-2.63-0.95-3.67
	c-0.26-1.02-0.51-1.92-0.77-2.7c0.26-0.26,0.64-0.51,1.15-0.77c0.51-0.26,1.1-0.58,1.74-0.95c0.64-0.39,1.28-0.77,1.92-1.17
	c0.64-0.38,1.09-0.77,1.35-1.15c0.26-0.39,0.38-0.9,0.38-1.55c0-0.64-0.25-1.28-0.77-1.92c-0.51-0.64-1.09-1.09-1.73-1.35
	c-0.64-0.26-1.22-0.39-1.73-0.39c-0.26,0.26-0.53,0.53-0.77,0.77c-0.53,0.26-1.04,0.46-1.55,0.59c-0.51,0.12-0.9,0.31-1.15,0.58
	c-0.53,0-0.9,0.12-1.17,0.38c0-0.51,0-1.09,0-1.73c0-0.64,0-1.41,0-2.32c0-0.9-0.13-1.68-0.38-2.32c-0.26-0.64-0.64-1.09-1.15-1.35
	c-0.53,0-1.17-0.12-1.94-0.38c-0.77-0.26-1.73-0.51-2.88-0.77c-1.17-0.26-2.19-0.31-3.09-0.2c-0.9,0.13-1.61,0.33-2.12,0.58
	c0.26,0.53,0.51,1.23,0.77,2.12c0.26,0.9,0.64,1.94,1.15,3.09c0.53,1.15,0.97,2.19,1.35,3.08c0.39,0.9,0.59,1.74,0.59,2.52
	c-0.53,0.25-1.3,0.64-2.32,1.15c-1.04,0.51-2.25,1.04-3.67,1.55c-1.41,0.51-2.63,0.84-3.65,0.95c-1.04,0.13-1.94,0.2-2.7,0.2v0.77
	c0.25,1.28,0.89,2.57,1.92,3.85c1.02,1.28,2.5,1.94,4.42,1.94c1.92,0,3.6-0.46,5.02-1.35c1.41-0.9,2.5-1.61,3.27-2.12
	c0.51,1.02,1.1,2.43,1.74,4.23c0.64,1.81,1.41,3.87,2.3,6.17c0.9,2.32,1.68,4.31,2.32,5.99c0.64,1.66,1.09,3.14,1.35,4.42v0.77v0.77
	c-0.26,0.51-0.58,1.22-0.97,2.12c-0.38,0.9-1.02,1.92-1.92,3.08c-0.9,1.17-1.73,2.19-2.5,3.09c-0.77,0.9-1.55,1.73-2.32,2.5
	c0.77,0,1.61-0.07,2.5-0.18c0.9-0.13,2.01-0.53,3.29-1.17c1.28-0.64,2.43-1.28,3.47-1.92c1.02-0.64,1.79-1.09,2.3-1.35
	c0.77,0.77,1.55,1.92,2.32,3.47c0.77,1.55,1.79,3.21,3.08,5.02c1.3,2.06,2.65,3.47,4.05,4.23c1.41,0.77,2.65,1.17,3.67,1.17
	c0.26,0,0.44,0.13,0.58,0.38c0.13,0.26,0.2,0.58,0.2,0.97c0,0.38,0,0.71,0,0.95c0,0.26,0,0.53,0,0.77l-0.77,0.77
	c-0.25-0.51-0.64-0.95-1.15-1.35c-0.51-0.38-1.15-0.71-1.92-0.97c-0.77-0.25-1.48-0.44-2.12-0.58c-0.64-0.12-1.22-0.18-1.74-0.18
	c-1.79-0.26-4.18-0.39-7.12-0.39c-2.96,0-6.37,0.26-10.21,0.77c-3.87,0.51-7.34,0.97-10.41,1.35c-3.09,0.39-5.66,0.58-7.71,0.58
	c0-0.77-0.13-1.79-0.38-3.08c0-1.04,0.05-2.32,0.18-3.87c0.13-1.53,0.2-2.94,0.2-4.23C430.7,83.21,430.7,82.3,430.7,81.53
	 M451.52,71.52l-0.77-3.85c-0.51,0.51-1.17,1.09-1.92,1.73c-0.77,0.64-1.81,1.41-3.09,2.32c-1.28,0.9-2.37,1.6-3.27,2.12
	c-0.9,0.51-1.74,1.02-2.5,1.53c-0.26,0.26-0.71,0.66-1.37,1.17c-0.64,0.51-1.46,0.95-2.5,1.35c-1.02,0.38-1.92,0.77-2.7,1.15
	c-0.77,0.39-1.41,0.71-1.92,0.97c0,0.51,0.13,1.22,0.38,2.12c0.26,0.89,0.84,1.92,1.74,3.08c0.89,1.15,1.79,1.99,2.7,2.5
	c0.9,0.53,1.61,0.77,2.12,0.77c0.51-1.02,1.41-2.17,2.7-3.47c1.02-1.28,2.43-2.88,4.24-4.82c1.79-1.92,3.21-3.59,4.23-5
	C450.61,73.77,451.25,72.55,451.52,71.52z M438.41,63.03l3.08-0.76h0.77v3.08l-3.08,1.55c0-0.26,0-0.58,0-0.97
	c0-0.38-0.07-0.77-0.2-1.15c-0.13-0.38-0.26-0.71-0.39-0.97C438.47,63.55,438.41,63.29,438.41,63.03z M468.48,32.19
	c-0.26,0-0.71,0-1.35,0s-1.28,0-1.92,0c-0.64,0-1.23,0-1.74,0c-0.51,0-0.89,0-1.15,0l-1.55,1.55c0.26,0.51,0.64,1.17,1.15,1.92
	c0.53,1.04,1.3,2.06,2.32,3.09c1.04,1.02,2.06,1.66,3.09,1.92c0.76,0.51,1.41,0.77,1.92,0.77c0.51-0.51,0.95-1.15,1.35-1.92
	c0.38-0.77,0.51-1.68,0.38-2.7c-0.13-1.04-0.44-1.92-0.95-2.7C469.5,33.36,468.99,32.72,468.48,32.19z"/>
<path d="M535.1,50.69c-1.28-0.76-2.43-1.73-3.47-2.88c-1.02-1.17-1.41-2.52-1.15-4.05c0-1.81,0.2-3.36,0.58-4.64
	c0.39-1.28,0.46-2.3,0.2-3.08c0.26-0.26,0.51-0.64,0.77-1.15c0.51-0.26,0.89-0.66,1.15-1.17c0.26-0.51,0.51-0.89,0.77-1.15
	c0.26-0.26,0.38-0.39,0.38-0.39c1.04-0.51,1.94-1.28,2.7-2.3c0.77-1.04,1.04-2.32,0.77-3.87c-0.25-1.53-0.89-2.75-1.92-3.65
	c-1.02-0.9-2.06-1.48-3.08-1.74c-0.77-0.77-1.88-1.22-3.29-1.35c-1.41-0.12-3.14,0.58-5.2,2.12c-2.06,1.55-3.85,3.09-5.39,4.62
	c-1.55,1.55-2.83,2.83-3.85,3.87c0.25,0.51,0.64,1.15,1.15,1.92c0.51,0.77,1.28,1.41,2.3,1.92c1.04,0.51,2.06,0.9,3.09,1.17
	c0.77,0,1.41,0.12,1.92,0.38c0.26,0.77,0.51,1.86,0.77,3.27c0.26,1.41,0.58,3.03,0.97,4.82c0.38,1.81,0.89,3.34,1.53,4.62
	c0.64,1.3,1.35,2.45,2.12,3.47c-0.51,0.26-1.09,0.71-1.73,1.35c-0.64,0.64-1.41,1.3-2.32,1.94c-0.9,0.64-1.6,1.22-2.12,1.73
	c-0.51,0.51-1.02,0.9-1.53,1.15c0-0.25,0-0.64,0-1.15c0-0.26,0.05-0.64,0.18-1.15c0.13-0.53,0.26-0.9,0.39-1.17
	c0.12-0.25,0.18-0.38,0.18-0.38c0.77-1.04,1.17-2.19,1.17-3.47c0-1.02-0.64-2.06-1.92-3.08c-1.55-1.3-2.96-2.32-4.24-3.09
	c-1.28-0.77-2.19-1.41-2.7-1.92c-0.26,0-0.53,0.13-0.77,0.38c-0.26,0.26-0.51,0.58-0.77,0.97c-0.26,0.38-0.44,0.71-0.58,0.95
	c-0.13,0.26-0.2,0.53-0.2,0.77c0.26,0.53,0.51,1.28,0.77,2.32c0.26,1.02,0.64,2.19,1.15,3.47c0.51,1.28,0.84,2.37,0.97,3.27
	c0.13,0.9,0.2,1.74,0.2,2.5v16.2c0,1.28,0,3.01,0,5.2s0,4.69,0,7.52c-0.26,2.58-0.53,4.88-0.77,6.94c-0.26,2.06-0.53,3.73-0.77,5.02
	c0.25,0.25,0.51,0.77,0.77,1.55c0.25,0.51,0.51,1.28,0.77,2.3c0.51,0.77,0.95,1.41,1.35,1.92c0.38,0.53,0.71,0.9,0.95,1.17
	c0.51-0.26,1.04-0.53,1.55-0.77c0.51-0.51,0.9-1.04,1.15-1.55c0.51-0.77,0.84-1.41,0.97-1.92c0.13-0.51,0.2-0.9,0.2-1.15
	c0.25-2.32,0.38-5.08,0.38-8.29c0-3.22-0.07-7.01-0.2-11.38c-0.13-4.36-0.13-8.22,0-11.56c0.13-3.34,0.33-6.04,0.58-8.09
	c0.53-0.26,1.04-0.51,1.55-0.77c0.51,0,1.15,0,1.92,0c1.04,0.26,1.81,0.39,2.32,0.39c0.77,0.25,1.41,0.38,1.92,0.38
	c0.77,0.26,1.81,0.2,3.09-0.2c1.28-0.38,2.57-1.22,3.85-2.5c1.04-1.28,1.35-2.57,0.97-3.85C537.22,52.11,536.38,51.22,535.1,50.69
	 M538.97,42.22c0,0.51,0.12,1.28,0.38,2.3c0,1.04,0.26,2.12,0.77,3.29c0.51,1.15,1.02,2.19,1.55,3.08c0.51,0.9,0.89,1.61,1.15,2.12
	c-0.51,1.04-1.28,2.45-2.32,4.24c-1.02,1.79-2.43,3.91-4.23,6.37c-1.81,2.43-3.29,4.56-4.44,6.35c-1.15,1.81-2.12,3.34-2.89,4.64
	c1.55-0.53,3.34-1.55,5.39-3.09c2.06-1.55,4.24-3.72,6.56-6.55c2.3-2.83,4.24-5.46,5.77-7.91c1.55-2.43,2.83-4.31,3.86-5.59
	c0.25,0,0.44,0.13,0.58,0.39c0.13,0.25,0.31,0.51,0.58,0.77c0.26,0.25,0.39,0.44,0.39,0.58c0,0.13,0,0.31,0,0.58
	c0.76,1.79,1.92,3.27,3.45,4.44c1.55,1.15,3.67,1.4,6.37,0.76c2.7-0.64,5.08-1.6,7.14-2.88c2.06-1.3,3.6-2.32,4.62-3.09l0.77-4.62
	c1.02,1.02,2.19,2.43,3.47,4.24c1.28,1.79,2.83,3.85,4.62,6.17c1.79,2.3,3.47,4.11,5.02,5.39c1.55,1.28,2.83,2.19,3.85,2.7
	c1.04-0.26,2.32-0.39,3.87-0.39c1.53,0,3.34,0,5.39,0c2.06,0,3.85-0.25,5.39-0.76c1.55-0.26,2.83-0.66,3.85-1.17
	c0-0.51-0.2-1.15-0.58-1.92c-0.38-0.77-0.9-1.55-1.55-2.32c-0.64-0.76-1.35-1.46-2.12-2.11c-0.77-0.66-1.41-1.1-1.92-1.37
	c-1.28-0.76-3.01-1.79-5.2-3.08c-2.19-1.28-4.69-3.09-7.52-5.39c-2.83-2.32-5.28-4.51-7.34-6.56c-2.06-2.06-3.85-3.72-5.39-5
	c0.77-0.26,1.74-0.58,2.89-0.97c1.15-0.38,2.38-1.15,3.67-2.3c1.28-1.17,2.43-2.25,3.47-3.29c1.02-1.02,1.79-1.92,2.3-2.7
	c1.28-1.02,2.32-2.19,3.09-3.47c0.51-1.28,0.25-2.57-0.77-3.85c-1.04-1.28-2.19-2.32-3.47-3.09c-1.55-0.51-2.7-0.89-3.47-1.15
	l-1.55,1.55l-3.08-0.77c-0.51,0.26-1.17,0.58-1.92,0.97c-0.77,0.38-1.68,0.95-2.7,1.73c-1.04,0.77-1.94,1.41-2.71,1.92
	c-0.76,0.51-1.4,1.04-1.92,1.55c0.53,0.51,1.1,1.09,1.74,1.73c0.64,0.66,1.41,1.04,2.3,1.17c0.9,0.13,1.74,0,2.52-0.39
	c0.77-0.38,1.41-0.71,1.92-0.95c-0.26,0.51-0.58,1.28-0.97,2.3c-0.38,1.04-0.77,2.12-1.15,3.29c-0.38,1.15-0.71,2.17-0.97,3.08
	c-0.25,0.9-0.51,1.61-0.76,2.12c-0.26-0.26-0.66-0.58-1.17-0.97c-0.51-0.38-0.89-0.82-1.15-1.35c-0.51-0.77-0.84-1.41-0.97-1.92
	c-0.13-0.51-0.31-0.9-0.58-1.15l-6.94-2.32c0.77-0.77,1.35-1.73,1.74-2.89c0.38-1.15,0.13-2.37-0.77-3.65
	c-0.9-1.28-1.86-2.19-2.89-2.7c-1.02-0.53-1.92-0.77-2.7-0.77c-0.26,0.25-0.77,0.51-1.55,0.77c-0.51,0.51-1.15,0.89-1.92,1.15
	c-0.51,0.51-1.02,0.77-1.55,0.77c-0.51,0.26-0.89,0.38-1.15,0.38c0-0.51-0.13-1.02-0.38-1.53c-0.26-0.53-0.64-1.04-1.17-1.55
	c-0.77-0.77-1.41-1.22-1.92-1.35c-0.51-0.13-0.9-0.2-1.15-0.2c-0.51,0.77-1.35,1.86-2.52,3.27c-1.15,1.41-2.5,3.03-4.05,4.82
	c-1.53,1.81-2.76,3.47-3.65,5.02c-0.9,1.55-1.61,2.83-2.12,3.85c0.25,0,0.64,0,1.15,0c0.26,0,0.64,0.13,1.15,0.39
	c0.53,0.25,1.04,0.51,1.55,0.77c0.26,0,0.51,0.12,0.77,0.38c0.26,0.51,0.71,1.1,1.35,1.74c0.64,0.64,1.35,1.41,2.12,2.3
	c0.77,0.9,1.41,1.74,1.92,2.52c0.51,0.76,0.77,1.4,0.77,1.92c-0.51,0.25-1.15,0.51-1.92,0.77c-0.77,0.25-1.68,0.18-2.7-0.2
	c-1.04-0.39-1.92-0.77-2.7-1.15c-0.77-0.39-1.41-0.71-1.92-0.97L538.97,42.22z M581.37,90.02v3.09c0.25,0.51,0.58,1.28,0.95,2.3
	c0.39,1.04,1.04,1.92,1.94,2.7c0.89,0.77,1.79,1.04,2.7,0.77c0.89-0.25,1.6-0.64,2.12-1.15c0.76-1.04,1.15-2.45,1.15-4.24
	c0-1.79-0.64-3.73-1.92-5.79c-1.55-2.3-3.22-3.98-5.02-5c-1.55-0.77-2.96-1.17-4.24-1.17v2.32L581.37,90.02z M548.21,92.34
	c0.26-0.77,0.39-1.74,0.39-2.89s-0.26-2.63-0.77-4.44c-0.26-1.53-0.84-2.81-1.74-3.85c-0.89-1.02-1.73-1.68-2.5-1.92
	c0,0.51-0.07,1.15-0.2,1.92c-0.13,0.77-0.44,1.74-0.95,2.89c-0.53,1.15-0.9,2.19-1.17,3.08c-0.25,0.9-0.44,1.55-0.58,1.94
	c-0.13,0.38-0.2,0.82-0.2,1.35c0,0.51,0.13,1.09,0.39,1.73c0.25,0.64,0.58,1.22,0.95,1.73c0.39,0.53,0.71,1.04,0.97,1.55
	c0.26,0,0.64,0,1.15,0c0.53,0,1.1-0.18,1.74-0.58c0.64-0.38,1.15-0.84,1.55-1.35C547.63,92.98,547.96,92.58,548.21,92.34z
	 M582.91,64.57c-1.04-0.77-2.45-1.41-4.24-1.92c-1.81-0.26-3.86-0.38-6.17-0.38c-2.32,0.25-4.38,0.25-6.17,0
	c-1.55,0-2.96-0.26-4.24-0.77c0,0.25-0.13,0.51-0.39,0.77c-0.25,0.25-0.51,0.58-0.76,0.95c-0.26,0.39-0.46,0.64-0.59,0.77
	c-0.11,0.13-0.31,0.33-0.58,0.58c-1.02,0.26-2.3,0.71-3.85,1.35c-1.55,0.64-3.34,1.35-5.39,2.12c-2.06,0.77-3.86,1.41-5.39,1.92
	c-1.55,0.53-2.83,1.04-3.87,1.55c0,0,0,0.13,0,0.39c0,0.25,0.13,0.64,0.39,1.15c0,0.51,0.13,0.9,0.38,1.15
	c0.26,0.51,0.51,0.9,0.77,1.15c0.77,1.3,1.86,2.32,3.27,3.09c1.41,0.77,3.09,1.02,5.02,0.77c1.92-0.26,3.67-0.71,5.2-1.35
	c1.55-0.64,2.7-0.97,3.47-0.97v1.55v6.17l0.77,6.94c0,0.77,0,1.79,0,3.08c0,1.28-0.13,2.83-0.38,4.64c0,1.53-0.53,2.81-1.55,3.85
	c-0.77,0.77-1.68,1.28-2.7,1.55c0.51,0.25,1.02,0.64,1.55,1.15c0.51,0.51,1.02,1.15,1.53,1.92c0.26,0.77,0.53,1.55,0.77,2.32
	c0.26,0.51,0.53,1.02,0.77,1.55c0.26,0,0.44,0,0.58,0c0.13,0,0.26,0,0.39,0c0.13,0,0.25,0,0.38,0c0.13,0,0.2,0,0.2,0
	c0.77-0.53,1.79-1.3,3.08-2.32c1.3-1.04,2.52-2.32,3.67-3.85c1.15-1.55,1.86-2.83,2.12-3.87c0.51-1.28,0.64-2.3,0.38-3.08v-6.94
	c0-1.04-0.07-2.25-0.18-3.67c-0.13-1.41-0.26-3.08-0.39-5c-0.13-1.94-0.18-3.6-0.18-5.02c0-1.41,0-2.52,0-3.27
	c0.51-0.26,1.09-0.46,1.73-0.59c0.64-0.12,1.41-0.31,2.32-0.58c0.89-0.25,1.66-0.51,2.3-0.77c0.64-0.25,1.1-0.38,1.35-0.38
	c0.77,0,1.55-0.26,2.32-0.77c0.77-0.51,1.41-1.28,1.92-2.32c0.51-1.02,0.77-1.99,0.77-2.88C583.29,65.41,583.16,64.84,582.91,64.57z
	 M563.64,33.74c0.77,0.26,1.6,0.84,2.5,1.74c0.9,0.89,1.86,1.99,2.89,3.27c1.02,1.55,1.86,2.83,2.5,3.85
	c0.64,1.04,1.1,1.92,1.35,2.7c-1.02-0.25-2.3-0.44-3.85-0.58c-1.55-0.13-3.34,0-5.39,0.39c-2.06,0.38-3.87,0.71-5.39,0.95
	c-1.55,0.26-2.83,0.51-3.86,0.77v1.55c0,0-0.13,0.07-0.38,0.2c-0.26,0.12-0.53,0.18-0.77,0.18c-0.26,0-0.46-0.07-0.58-0.18
	c-0.13-0.13-0.33-0.2-0.58-0.2c0.51-1.04,1.15-2.32,1.92-3.87c0.77-1.53,1.73-3.21,2.88-5c1.17-1.81,2.25-3.22,3.29-4.24
	C561.45,34.51,562.6,34,563.64,33.74z M555.15,24.49v2.3c0,0.53-0.13,1.1-0.38,1.74c-0.26,0.64-0.53,1.41-0.77,2.3
	c-0.26,0.9-0.58,1.74-0.97,2.52c-0.38,0.77-0.71,1.41-0.95,1.92c-0.26-0.26-0.59-0.58-0.97-0.97c-0.39-0.38-0.9-0.71-1.55-0.95
	c-0.64-0.26-1.22-0.51-1.73-0.77c-0.53-0.26-0.9-0.39-1.17-0.39c0.26-0.51,0.71-1.22,1.35-2.11c0.64-0.9,1.48-1.81,2.52-2.7
	c1.02-0.9,1.92-1.61,2.7-2.12C554,24.74,554.64,24.49,555.15,24.49z"/>
<path d="M988.91,25.26c0-1.3-0.44-2.52-1.35-3.67c-0.9-1.15-2.25-2.19-4.05-3.09c-1.79-0.89-3.47-1.46-5.02-1.73
	c-1.55-0.26-2.7-0.51-3.47-0.77c-0.25,0-0.51,0-0.77,0c-0.51,0-1.02,0-1.53,0c-0.53,0-0.9,0-1.17,0c-0.51,0-0.89,0-1.15,0
	c0,0.51,0.07,1.22,0.2,2.12c0.13,0.9,0.25,1.92,0.38,3.09c0.13,1.15,0.2,2.17,0.2,3.08c0,0.9,0,1.73,0,2.5
	c-0.51,0.26-1.15,0.59-1.92,0.97c-0.77,0.38-1.68,0.64-2.7,0.77c-1.04,0.13-1.94,0.31-2.7,0.58c-0.77,0.26-1.41,0.51-1.94,0.77
	c-1.28,0.25-2.81,0.64-4.62,1.15c-1.79,0.51-3.98,1.04-6.55,1.55c-2.32,0.77-4.31,1.28-5.99,1.55c-1.66,0.25-3.14,0.38-4.42,0.38
	l-0.77,1.55c0.26,0,0.44,0.13,0.58,0.38c0.13,0.26,0.33,0.53,0.58,0.77c0.26,0.26,0.39,0.58,0.39,0.97c0,0.38,0,0.71,0,0.95
	c1.02,1.81,2.43,3.6,4.24,5.39c1.79,1.81,4.11,2.9,6.92,3.29c2.83,0.38,5.41,0.18,7.71-0.58c2.06-1.04,3.73-1.94,5.02-2.71
	c0,0-0.07,0.07-0.2,0.2c-0.13,0.13-0.31,0.33-0.58,0.58c-0.77,1.55-2.06,3.6-3.85,6.17c-1.81,2.58-4,5.66-6.56,9.26
	c-2.83,3.34-5.2,6.3-7.12,8.87c-1.94,2.57-3.54,4.75-4.82,6.55c0.51,0,1.02,0.07,1.53,0.2c0.53,0.13,1.1,0.26,1.74,0.39
	c0.64,0.12,1.22,0.18,1.73,0.18c0.53,0,0.9,0,1.17,0c1.53,0.26,3.34,0,5.39-0.77c2.06-0.77,4.24-2.43,6.55-5
	c2.32-2.58,4.05-5.02,5.21-7.34c1.15-2.3,1.86-4.11,2.12-5.39c0,2.06-0.07,4.69-0.2,7.91c-0.13,3.21-0.2,6.94-0.2,11.17
	c0,4.24-0.13,7.98-0.38,11.18c-0.26,3.21-0.53,5.97-0.77,8.29c0.25,0.51,0.44,1.15,0.58,1.92c0.13,0.77,0.31,1.68,0.58,2.7
	c0.51,0.77,0.9,1.55,1.15,2.32c0.26,0.51,0.53,1.02,0.77,1.55c0.26,0,0.64,0.11,1.17,0.38c0.51,0,1.02,0,1.53,0
	c0.77-0.26,1.28-0.51,1.55-0.77c0.51-0.51,0.9-0.9,1.15-1.15c0.77-1.04,1.3-2.32,1.55-3.85c0.51-1.81,0.71-3.8,0.58-5.99
	c-0.13-2.19-0.25-4.05-0.38-5.59c-0.13-1.53-0.2-2.83-0.2-3.85c0.77-0.26,1.61-0.44,2.5-0.58c0.9-0.13,2.01-0.33,3.29-0.58
	c1.28-0.26,2.43-0.58,3.47-0.97c1.02-0.38,1.79-0.71,2.3-0.97v17.75c-0.25,0-0.71,0-1.35,0c-0.64,0-1.48,0-2.5,0
	c-1.04,0-1.92,0-2.7,0c-0.77,0-1.41,0-1.92,0c0,0,0.07,0.11,0.18,0.38c0.13,0.26,0.33,0.64,0.59,1.15c0.25,0.53,0.51,0.97,0.76,1.35
	c0.26,0.39,0.53,0.71,0.77,0.97c1.04,0.26,1.92,0.9,2.7,1.92c1.04,0.77,1.94,1.92,2.7,3.47c1.04,1.28,2.06,2.06,3.09,2.32
	c1.02,0.25,2.06,0.25,3.08,0c0.26-0.53,0.77-1.04,1.55-1.55c0.77-0.77,1.68-1.41,2.7-1.92c1.04-0.77,1.86-1.41,2.52-1.92
	c0.64-0.53,0.95-1.04,0.95-1.55c0.51-3.09,0.71-6.81,0.58-11.18c-0.13-4.36-0.51-9.51-1.15-15.41c-0.64-5.92-1.04-11.12-1.15-15.63
	c-0.13-4.49-0.07-8.16,0.18-10.99c0.77-1.02,1.1-2.11,0.97-3.27c-0.13-1.15-0.9-2.37-2.32-3.65c-1.41-1.3-2.88-2.32-4.42-3.09
	c-1.55-0.77-2.7-1.28-3.47-1.55c0,0,0,0.07,0,0.2c0,0.13-0.07,0.26-0.2,0.39c-0.13,0.12-0.25,0.25-0.38,0.38
	c-0.13,0.13-0.2,0.31-0.2,0.58c-0.26,0.26-0.77,0.51-1.55,0.77c-0.77,0.51-1.66,1.02-2.7,1.55c-1.02,0.51-1.99,1.02-2.89,1.53
	c-0.89,0.53-1.6,1.04-2.11,1.55c0,0.51,0.12,1.17,0.38,1.92c0.51,1.04,1.22,2.01,2.12,2.9c0.9,0.9,1.73,1.48,2.5,1.74
	c0.77,0.25,1.41,0.38,1.92,0.38c0,1.28,0,2.83,0,4.62c0,1.81,0.07,3.93,0.2,6.37c0.13,2.45,0.26,4.51,0.39,6.17
	c0.12,1.68,0.18,3.14,0.18,4.44c-0.51-0.26-1.28-0.46-2.3-0.59c-1.04-0.12-2.19-0.18-3.47-0.18c-1.28,0-2.39,0.13-3.29,0.38
	c-0.89,0.26-1.73,0.64-2.5,1.15V64.57l2.32,1.55l-1.55,5.39c0.51-0.77,1.35-1.66,2.5-2.7c1.17-1.02,2.39-2.12,3.67-3.27
	c1.28-1.15,2.19-2.19,2.7-3.09c0.51-0.89,0.64-1.73,0.39-2.5c-0.53-0.77-1.23-1.41-2.12-1.92c-0.9-0.51-1.94-0.77-3.09-0.77
	c-1.15,0-2.12,0-2.89,0c-0.77,0.26-1.41,0.38-1.92,0.38c0.26-0.77,0.39-1.79,0.39-3.08c0-1.04,0.05-2.32,0.18-3.87
	c0.13-1.53,0.46-2.94,0.97-4.23c0.51-1.04,1.02-1.94,1.55-2.7c0.77-1.3,1.79-2.58,3.08-3.87c1.28-1.02,2.9-1.79,4.82-2.3
	c1.92-0.53,3.54-0.9,4.82-1.17c1.55,0,2.76-0.18,3.67-0.58c0.89-0.38,1.99-0.71,3.27-0.95c1.28-0.26,2.83-0.33,4.62-0.2
	c1.81,0.13,3.27,0.31,4.44,0.58c1.15,0.26,2.12,0.51,2.89,0.77c1.28-1.04,2.17-2.19,2.7-3.47c0.51-1.28,0.18-2.7-0.97-4.24
	c-1.15-1.55-2.39-2.83-3.67-3.85c-1.53-1.04-2.7-1.81-3.47-2.32c0,0,0,0.07,0,0.2c0,0.13-0.07,0.25-0.18,0.38
	c-0.13,0.13-0.26,0.2-0.39,0.2c-0.13,0-0.31,0.13-0.58,0.38c-0.51,0-1.35,0.13-2.5,0.39c-1.17,0.25-2.63,0.44-4.44,0.58
	c-1.79,0.13-3.34,0.2-4.62,0.2C991.09,24.74,989.94,25,988.91,25.26"/>
<path d="M1092.04,90.79c-0.53,0.26-1.35,0.71-2.52,1.35c-1.15,0.64-2.5,1.41-4.05,2.32c-1.55,0.89-2.94,1.6-4.24,2.12
	c-1.28,0.51-2.3,0.89-3.08,1.15c-0.26-0.51-0.44-1.1-0.58-1.74c-0.13-0.64-0.2-1.41-0.2-2.3c0-0.9,0-1.68,0-2.32
	c0-0.64,0-1.09,0-1.35V75.36c1.04,0.77,2.19,1.68,3.47,2.71c1.28,1.28,2.76,2.7,4.42,4.23c1.68,1.55,3.16,2.96,4.44,4.24
	c1.28,1.28,2.32,2.45,3.09,3.47c0,0-0.07,0-0.2,0c-0.13,0-0.26,0.07-0.39,0.2C1092.1,90.35,1092.04,90.53,1092.04,90.79
	 M1079.7,52.24c0.51-0.51,1.28-1.02,2.3-1.55c0.77-0.76,1.81-1.46,3.09-2.11c1.28-0.64,2.3-1.35,3.08-2.12
	c0.77-0.77,1.28-1.41,1.55-1.94c0,0.26,0,0.71,0,1.37c0,0.64-0.07,1.4-0.2,2.3c-0.13,0.9-0.25,1.68-0.38,2.32
	c-0.13,0.64-0.2,1.22-0.2,1.73l-9.24,6.17c0-0.51,0-1.02,0-1.55c0-0.51,0-1.09,0-1.73c0-0.64,0-1.22,0-1.73
	C1079.7,52.88,1079.7,52.5,1079.7,52.24z M1079.7,50.69l0.77-4.62l2.3,1.55L1079.7,50.69z M1052.71,63.03
	c0.26,0.53,0.77,1.3,1.55,2.32c0.51,0.77,1.41,1.41,2.7,1.92c1.02,0.53,2.06,0.53,3.08,0c0.77-0.51,1.41-1.15,1.94-1.92
	c0-1.55-0.26-3.34-0.77-5.39c-0.53-2.06-1.04-4.49-1.55-7.32c-0.51-2.83-0.64-5.35-0.39-7.52c0.26-2.19,0.66-3.93,1.17-5.21
	c0-0.77,0.25-1.73,0.77-2.89c0.51-1.15,1.09-2.43,1.73-3.85c0.64-1.41,1.04-2.63,1.15-3.67c0.13-1.02-0.05-1.92-0.58-2.7
	c-0.51-0.51-1.15-1.15-1.92-1.92c-1.02-0.77-2.19-1.48-3.47-2.12c-1.28-0.64-2.43-0.89-3.47-0.77c-1.02,0.13-1.92,0.46-2.7,0.97
	c-0.25,0.77-0.84,1.61-1.73,2.5c-0.9,0.9-2.19,1.88-3.87,2.89c-1.66,1.04-3.14,1.79-4.42,2.32c-1.28,0.51-2.32,1.02-3.09,1.53
	l-0.77,3.87c0.26,0.77,0.9,1.66,1.94,2.7c0.76,1.02,2.06,1.92,3.85,2.7c1.79,0.77,3.47,1.15,5.02,1.15c1.28,0.26,2.3,0.39,3.08,0.39
	c0.26,0.77,0.39,1.66,0.39,2.7c0,1.28,0,2.7,0,4.24c0,1.53,0.05,2.94,0.18,4.23c0.13,1.3,0.2,2.45,0.2,3.47h-2.32
	c-0.25-0.51-0.64-1.15-1.15-1.92c-0.51-0.77-1.15-1.41-1.92-1.92c-1.04-0.77-1.92-1.09-2.7-0.97c-0.77,0.13-1.41,0.46-1.92,0.97
	v37.78c0,0.25,0,0.71,0,1.35c0,0.64,0,1.41,0,2.32c0,0.89-0.13,1.73-0.39,2.5c0,0.51-0.07,1.02-0.2,1.55
	c-0.12,0.51-0.05,1.15,0.2,1.92c0.26,0.77,0.71,1.6,1.35,2.5c0.64,0.9,1.28,1.61,1.92,2.12c0.64,0.51,1.23,0.9,1.74,1.15
	c0.26,0,0.58-0.11,0.95-0.38c0.39-0.26,0.77-0.64,1.17-1.15c0.38-0.53,0.71-0.9,0.95-1.17c0.26-0.51,0.53-0.89,0.77-1.15
	c0.26-2.32,0.39-5.26,0.39-8.87c0-3.34-0.13-7.32-0.39-11.96c-0.25-4.62-0.38-8.73-0.38-12.34c0-3.34,0.13-6.17,0.38-8.47
	c0.26,0,0.46,0,0.58,0c0.13,0,0.26,0.13,0.39,0.38c0.13,0.26,0.25,0.46,0.38,0.58C1052.65,62.58,1052.71,62.78,1052.71,63.03z
	 M1095.11,59.18l2.32-0.77c0.25-1.28,0.51-2.94,0.77-5c0.25-2.06,0.44-4.44,0.58-7.14c0.13-2.7,0.38-5.02,0.77-6.94
	c0.38-1.92,0.71-3.54,0.95-4.82c0.53-0.51,1.28-1.15,2.32-1.92c1.02-0.77,2.19-1.79,3.47-3.09c1.02-1.28,1.66-2.57,1.92-3.85
	c0.26-1.02,0.26-1.92,0-2.7c-0.77-1.04-1.73-1.99-2.89-2.9c-1.15-0.89-2.63-1.6-4.42-2.12c-1.81-0.51-3.34-0.89-4.64-1.15
	c-1.28-0.26-2.43-0.51-3.45-0.77c-0.77,0-1.68,0.13-2.71,0.39c-1.28,0.25-2.63,0.76-4.05,1.53c-1.41,0.77-2.63,1.55-3.65,2.32
	c-1.04,0.77-1.92,1.41-2.7,1.92c0.25,0.26,0.58,0.71,0.95,1.35c0.39,0.64,1.1,1.35,2.12,2.12c0.77,0.77,1.55,1.35,2.32,1.74
	c0.77,0.38,1.28,0.69,1.55,0.95c0.76,0.26,1.35,0.84,1.73,1.74c0.38,0.89,0.58,1.99,0.58,3.27c0.26,1.55,0.39,2.83,0.39,3.85
	c0,1.04,0.11,1.92,0.38,2.7l-0.77,0.77c-0.25-0.26-0.71-0.64-1.35-1.15c-0.64-0.51-1.35-0.97-2.12-1.35
	c-0.77-0.39-1.55-0.64-2.3-0.77c-0.77-0.13-1.41-0.07-1.94,0.2l0.77-2.32c-0.25-0.77-0.71-1.73-1.35-2.89
	c-0.64-1.15-1.66-2.37-3.08-3.65c-1.41-1.3-2.76-2.19-4.05-2.71c-1.28-0.51-2.32-0.76-3.09-0.76l-0.77,3.85l0.77,10.79
	c0,3.09-0.07,7.07-0.2,11.96c-0.12,4.88-0.25,10.48-0.38,16.76c-0.13,6.3-0.26,11.83-0.38,16.58c-0.13,4.75-0.33,8.67-0.59,11.76
	c0.26,0.51,0.33,1.15,0.2,1.92c-0.13,0.77-0.71,1.68-1.73,2.7c-0.77,0.77-1.41,1.48-1.94,2.12c-0.51,0.64-0.89,1.22-1.15,1.74
	c0.26,0.25,0.64,0.76,1.15,1.53c0.26,0.53,0.71,1.17,1.35,1.94c0.66,0.76,1.23,1.4,1.74,1.92c0.51,0.51,0.9,1.02,1.15,1.55
	c0.26-0.02,0.46-0.02,0.58-0.02c0.13,0,0.26,0,0.39,0c0.13,0,0.25,0,0.38,0c0.13,0,0.2,0,0.2,0.02c1.55-1.04,3.4-2.19,5.59-3.47
	c2.19-1.3,4.75-2.76,7.71-4.44c2.94-1.68,5.53-3.27,7.7-4.82c2.19-1.55,3.93-2.96,5.21-4.24c0.25,0,0.44,0.07,0.58,0.2
	c0.13,0.13,0.31,0.31,0.58,0.58c0.26,0.26,0.51,0.51,0.77,0.77c0.26,0.26,0.38,0.51,0.38,0.77c0.53,0.25,1.17,0.9,1.94,1.92
	c1.02,0.77,2.11,1.68,3.27,2.7c1.15,1.04,2.12,1.79,2.89,2.32c0.76,0.51,1.41,0.77,1.92,0.77c1.02-0.53,2.37-0.77,4.05-0.77
	c1.66,0,3.54-0.13,5.59-0.39c2.06-0.25,3.85-0.77,5.39-1.53c1.55-1.04,2.7-2.19,3.47-3.47c0,0-0.13,0-0.39,0
	c0-0.26-0.12-0.39-0.38-0.39c0-0.25,0-0.38,0-0.38c-1.79-1.28-3.98-2.7-6.56-4.24c-2.81-1.55-6.04-3.4-9.62-5.59
	c-3.6-2.19-6.69-4.31-9.26-6.37c-2.83-2.06-5.13-3.85-6.94-5.39c0.77-0.25,1.68-0.44,2.7-0.58c1.04-0.13,2.25-0.31,3.67-0.58
	c1.41-0.26,2.76-0.51,4.05-0.77c1.02-0.51,1.92-0.9,2.7-1.15c1.28-1.04,2.19-2.32,2.7-3.87c0.26-1.53-0.38-3.08-1.92-4.62
	c-1.55-1.55-3.09-2.57-4.62-3.08c-1.81-0.26-3.09-0.26-3.87,0c-0.25,0.51-0.71,1.28-1.35,2.3c-0.64,1.04-1.48,2.12-2.5,3.27
	c-1.04,1.17-1.99,2.19-2.89,3.09c-0.9,0.9-1.73,1.61-2.5,2.12c-0.51-0.26-1.1-0.58-1.74-0.97c-0.64-0.38-1.41-1.02-2.3-1.92
	c-0.9-0.9-1.74-1.61-2.52-2.12c-0.77-0.51-1.41-0.9-1.92-1.15c0.51-0.26,1.15-0.77,1.92-1.55c1.04-0.51,2.12-1.35,3.29-2.5
	c1.15-1.17,2.11-2.12,2.88-2.9c0.77-0.77,1.41-1.28,1.94-1.55L1095.11,59.18z"/>
<path d="M1183.19,88.47c0.77-1.02,1.68-2.3,2.7-3.85c1.04-1.55,2.06-3.34,3.09-5.39c1.02-2.06,1.79-3.86,2.3-5.39
	c0.26-1.55,0.39-2.83,0.39-3.87c0-0.25-0.13-0.44-0.39-0.58c-0.25-0.13-0.51-0.31-0.77-0.58c-0.25-0.26-0.44-0.51-0.58-0.77
	c-0.13-0.25-0.31-0.38-0.58-0.38c-0.51-0.26-1.28-0.53-2.32-0.77c-1.02-0.26-2.17-0.64-3.47-1.15c-1.28-0.26-2.37-0.46-3.27-0.59
	c-0.89-0.12-1.73-0.07-2.5,0.2l-1.55,3.85v1.55c0,0,0,0.13,0,0.39c0,0.25,0,0.51,0,0.77c0,0.25-0.07,0.44-0.2,0.58
	c-0.12,0.13-0.31,0.31-0.58,0.58c-0.25,1.02-0.64,2.5-1.15,4.42c-0.51,1.94-1.28,4.24-2.32,6.94c-1.02,2.7-2.24,4.95-3.65,6.74
	c-1.41,1.81-2.89,3.22-4.44,4.24v2.32c0.51,0.51,1.15,1.41,1.92,2.7c0.77,1.28,1.81,2.57,3.09,3.85c1.28,1.28,2.57,2.19,3.85,2.7
	c1.04,0.26,1.92,0.26,2.7,0c1.28-0.51,2.76-1.28,4.44-2.3c1.66-1.04,3.65-2.19,5.97-3.47c2.32-1.55,4.38-2.7,6.17-3.47
	c1.79-1.04,3.21-1.81,4.24-2.32c0,0,0,0.07,0,0.2c0,0.13,0.07,0.26,0.2,0.38c0.12,0.13,0.25,0.2,0.38,0.2s0.2,0,0.2,0
	c0.25,0.51,0.51,1.55,0.77,3.09c0.25,1.53,0.89,3.21,1.92,5c1.02,1.55,2.19,2.58,3.47,3.09c1.55,0.25,2.83,0.13,3.85-0.39
	c0.77-0.77,1.48-1.66,2.12-2.7c0.64-1.02,1.22-2.19,1.74-3.47c0.25-1.53,0.38-2.94,0.38-4.23c0-1.04-0.13-1.94-0.38-2.71
	c0-1.28-0.39-2.81-1.17-4.62c-0.77-1.79-2.19-3.72-4.24-5.77c-2.06-2.06-3.98-3.54-5.77-4.44c-1.81-0.9-3.21-1.35-4.24-1.35
	l-1.55,1.55l1.55,3.85v3.09c-0.77,0.25-1.68,0.51-2.7,0.77c-1.28,0.25-2.7,0.64-4.24,1.15c-1.55,0.51-2.83,1.02-3.85,1.55
	c-1.28,0.25-2.32,0.64-3.09,1.15c0.26-0.26,0.46-0.44,0.58-0.58c0.13-0.13,0.26-0.33,0.39-0.58c0.13-0.26,0.25-0.53,0.38-0.77
	C1183.12,88.6,1183.19,88.47,1183.19,88.47 M1156.19,54.56c-0.25,1.55-0.95,3.6-2.12,6.17c-1.15,2.57-2.7,5.53-4.62,8.87
	c-1.92,3.34-3.4,6.37-4.42,9.06c-1.04,2.7-1.68,4.93-1.92,6.74c1.28-0.51,2.75-1.1,4.42-1.74c1.68-0.64,3.67-1.73,5.97-3.27
	c2.32-1.55,4.38-3.21,6.17-5.02c1.81-1.79,3.22-3.34,4.24-4.62c0.77-1.02,1.68-2.37,2.7-4.05c1.04-1.66,2.25-3.6,3.67-5.77
	c1.41-2.19,2.63-4.18,3.67-5.99c1.02-1.79,1.79-3.21,2.3-4.24c0.77-0.51,1.55-1.22,2.32-2.11c0.77-0.9,1.15-1.94,1.15-3.09
	c0-1.15-0.38-2.12-1.15-2.89c-0.77-0.77-1.55-1.41-2.32-1.92c-0.77-0.26-1.73-0.64-2.9-1.15c-1.15-0.51-2.57-1.1-4.23-1.74
	c-1.68-0.64-3.16-0.95-4.44-0.95c-1.28,0-2.32,0.25-3.08,0.77c-0.26,1.02-0.53,2.3-0.77,3.85c-0.53,1.28-1.04,2.89-1.55,4.82
	c-0.51,1.92-1.04,3.54-1.55,4.82C1157.23,52.37,1156.72,53.52,1156.19,54.56z M1200.92,31.43c0.26-1.3,0-2.83-0.77-4.64
	c-0.77-1.79-2.19-3.47-4.24-5c-2.06-1.55-4.05-2.52-5.97-2.89c-1.92-0.39-3.4-0.58-4.42-0.58c-0.26,0.25-0.59,0.71-0.97,1.35
	c-0.38,0.64-0.97,1.28-1.73,1.92c-0.77,0.64-1.41,1.22-1.94,1.73c-0.51,0.53-1.02,0.9-1.53,1.17c0.25,0.25,0.64,0.51,1.15,0.77
	c0.26,0.25,0.64,0.58,1.15,0.95c0.53,0.39,1.04,0.84,1.55,1.35c0.26,0.26,0.51,0.51,0.77,0.77c1.02,1.28,2.06,2.89,3.08,4.82
	c1.04,1.92,2.06,4.31,3.09,7.14c1.02,2.83,2.06,5.26,3.08,7.32c0.77,2.06,1.55,3.78,2.32,5.2c0.77,1.41,1.73,3.36,2.89,5.79
	c1.15,2.43,2.63,5.13,4.42,8.09c1.81,2.96,3.73,5.33,5.79,7.14c2.06,1.79,3.85,3.08,5.39,3.85c1.28-0.51,2.96-0.77,5.02-0.77
	c1.79-0.25,3.98-0.31,6.55-0.18c2.57,0.12,4.88,0.05,6.94-0.2c1.79-0.26,3.34-0.64,4.62-1.17c-0.51-0.76-1.15-1.79-1.92-3.08
	c-1.02-1.28-2.19-2.7-3.47-4.24c-1.55-1.55-2.83-2.83-3.85-3.85c-1.28-1.28-2.32-2.19-3.09-2.7c-2.06-1.28-4.36-3.03-6.94-5.21
	c-2.57-2.17-5.07-5-7.52-8.47c-2.43-3.47-4.36-6.63-5.77-9.46C1203.17,35.54,1201.95,33.23,1200.92,31.43z"/>
<path d="M1280.86,84.62l-0.77-6.17c0.53-0.51,1.17-1.04,1.92-1.55c0.77-0.51,1.68-1.02,2.71-1.55c1.02-0.51,1.92-0.95,2.7-1.35
	c0.76-0.38,1.41-0.71,1.92-0.95l-0.77,7.71c-0.26,0.25-0.71,0.51-1.35,0.76c-0.64,0.26-1.35,0.59-2.12,0.97
	c-0.77,0.39-1.55,0.77-2.32,1.15C1282.02,84.05,1281.37,84.36,1280.86,84.62 M1304.76,68.44c0.26-1.3,0.07-2.52-0.58-3.67
	c-0.64-1.15-1.79-2.12-3.47-2.89c-1.66-0.77-3.27-1.35-4.82-1.73c-1.55-0.39-2.7-0.71-3.47-0.97c0,0-0.13,0-0.38,0
	c-0.26,0-0.46,0.07-0.58,0.2c-0.13,0.13-0.33,0.31-0.58,0.58c-0.53,0.51-1.3,1.02-2.32,1.55c-1.04,0.51-2.19,1.02-3.47,1.53
	c-1.28,0.53-2.5,0.97-3.67,1.37c-1.15,0.38-2.12,0.69-2.88,0.95c-1.04,0.26-2.25,0.58-3.67,0.97c-1.41,0.38-3.09,0.64-5.02,0.77
	c-1.92,0.12-3.65,0.12-5.2,0c-1.55-0.13-2.83-0.2-3.87-0.2l-0.76,3.08c0.51,1.04,1.15,2.45,1.92,4.24c0.77,1.81,1.86,3.86,3.27,6.17
	c1.41,2.32,2.57,4.31,3.47,5.97c0.9,1.68,1.61,3.09,2.12,4.24c0.51,1.17,1.35,2.19,2.5,3.09c1.15,0.89,2.63,1.22,4.44,0.95
	c1.79-0.25,3.34-0.64,4.62-1.15c1.28-0.51,2.32-0.97,3.08-1.35c0.77-0.38,1.81-0.71,3.09-0.97c1.28-0.25,2.76-0.58,4.42-0.95
	c1.68-0.39,3.22-0.77,4.64-1.15c1.41-0.39,2.5-0.84,3.27-1.37c0.26-1.02,0.44-2.3,0.58-3.85c0.13-1.55,0.44-3.34,0.97-5.39
	c0.25-2.32,0.64-4.31,1.15-5.97C1304.12,70.81,1304.52,69.46,1304.76,68.44z M1296.29,53.01c0.77-0.26,1.66-0.77,2.7-1.55
	c1.02-0.51,2.06-1.41,3.08-2.7c1.04-1.28,1.74-2.43,2.12-3.47c0.39-1.02,0.58-1.79,0.58-2.3c0-0.26-0.13-0.46-0.38-0.58
	c-0.26-0.13-0.46-0.33-0.58-0.59c-0.13-0.25-0.26-0.51-0.39-0.76c-0.13-0.26-0.18-0.39-0.18-0.39c-1.81-0.77-4.18-1.02-7.14-0.77
	c-2.96,0.26-6.37,1.1-10.21,2.52c-3.86,1.41-7.2,2.43-10.03,3.08c-2.81,0.64-5.26,0.84-7.32,0.58l-1.55,2.32
	c0.26,0.51,0.71,1.15,1.35,1.92c0.64,0.77,1.48,1.74,2.52,2.89c1.02,1.15,1.92,2.06,2.7,2.7c0.77,0.64,1.41,1.22,1.92,1.73
	c1.28,0.77,2.76,1.28,4.44,1.55c1.66,0.26,3.65-0.13,5.97-1.15c2.3-1.04,4.36-2.06,6.17-3.09
	C1293.84,53.92,1295.26,53.27,1296.29,53.01z M1325.59,57.63V43.77c0-0.26,0-0.46,0-0.59c0-0.12,0-0.31,0-0.58c0-0.25,0-0.51,0-0.77
	c0-0.25,0-0.38,0-0.38c0.26-1.28,0.51-3.21,0.77-5.79c0.51-2.3,0.64-5,0.38-8.09c-0.25-3.08-1.28-5.39-3.08-6.94
	c-1.81-1.28-3.73-2.06-5.79-2.3c-1.28-0.53-2.83-0.77-4.62-0.77c-2.06-0.26-4.38-0.33-6.94-0.2c-2.57,0.13-4.75,0.33-6.55,0.58
	c-2.06,0.26-3.73,0.39-5.02,0.39c-1.04,0.25-2.32,0.51-3.85,0.77c-1.55,0.25-3.36,0.38-5.41,0.38c-1.79,0.26-3.4,0.58-4.82,0.97
	c-1.41,0.38-2.63,0.95-3.65,1.73c-0.26,0.77-0.07,1.99,0.58,3.67c0.64,1.66,1.92,3.6,3.85,5.77c1.92,2.19,3.8,3.8,5.59,4.82
	c1.81,1.04,3.09,1.68,3.87,1.92c1.28-0.25,2.75-0.58,4.42-0.95c1.68-0.39,3.67-1.1,5.97-2.12c2.32-1.04,4.38-2.06,6.17-3.09
	c1.81-1.02,3.22-1.79,4.24-2.3c0,1.28,0,2.89,0,4.82c0,1.92-0.07,4.24-0.2,6.94c-0.12,2.7-0.25,5.07-0.38,7.12
	c-0.13,2.06-0.2,3.73-0.2,5.02c0,2.32,0,5.13,0,8.49c0,3.34,0,7.25,0,11.74c0,4.51,0,8.49,0,11.96c0,3.47,0,6.37,0,8.67
	c0,0,0,0.13,0,0.39c0,0.25-0.13,0.51-0.38,0.77c-0.26,0.25-0.46,0.58-0.58,0.95c-0.13,0.39-0.33,0.71-0.58,0.97
	c-0.53,0-1.17,0.13-1.94,0.38c-0.51,0-1.28,0.13-2.3,0.39c-0.77,0-1.55,0-2.32,0s-1.41,0-1.92,0c0.51,0.77,1.28,1.79,2.32,3.08
	c0.76,1.28,1.92,2.83,3.45,4.62c1.55,1.81,2.96,3.22,4.24,4.24c1.28,0.77,2.32,1.41,3.09,1.94c0.25-0.02,0.51-0.02,0.77-0.02
	c0.25,0,0.51,0,0.77,0.02c0.51-0.26,0.89-0.39,1.15-0.39c0.25-0.26,0.38-0.38,0.38-0.38c0.53-0.77,1.17-1.55,1.92-2.32
	c0.77-0.77,1.74-1.41,2.89-1.92c1.17-0.51,2.12-1.04,2.89-1.55c0.77-0.77,1.28-1.41,1.55-1.92c0.25-2.57,0.44-5.79,0.58-9.64
	c0.13-3.85,0.07-8.36-0.2-13.49c-0.25-5.15-0.51-9.64-0.77-13.5C1325.72,63.42,1325.59,60.22,1325.59,57.63z"/>
<path d="M724.29,99.28c-0.77-0.26-1.68-0.39-2.7-0.39c-1.04,0-2.25,0.13-3.67,0.39c-1.41,0.25-2.76,0.51-4.05,0.77
	c-1.04-0.02-1.92-0.02-2.7,0c0-0.77,0-1.68,0-2.71c0-1.02,0-2.24,0-3.65s0-2.63,0-3.67c0-1.02,0-1.79,0-2.32
	c0.26,0.26,0.64,0.53,1.15,0.77c0.26,0.26,0.64,0.46,1.17,0.59c0.51,0.12,0.89,0.25,1.15,0.38c0.25,0.13,0.38,0.31,0.38,0.58
	l-1.53,4.62c0.76-0.51,1.6-1.02,2.5-1.53c0.9-0.53,1.92-1.17,3.08-1.94c1.17-0.76,2.19-1.35,3.09-1.73c0.9-0.38,1.61-0.71,2.12-0.97
	V99.28z M711.18,80c0.77-0.26,1.79-0.53,3.08-0.77c1.04-0.26,2.32-0.64,3.86-1.15c1.55-0.53,2.83-0.84,3.85-0.97
	c1.04-0.13,1.81-0.2,2.32-0.2V87.7c-0.77-0.76-1.68-1.53-2.7-2.3c-1.28-0.77-2.63-1.28-4.05-1.55c-1.41-0.26-2.65-0.26-3.67,0
	c-1.04,0.26-1.92,0.51-2.7,0.77V80z M725.84,32.96c0.25-0.51,0.25-1.09,0-1.73c-0.26-0.64-0.77-1.41-1.55-2.32
	c-0.77-0.89-1.48-1.48-2.12-1.73c-0.64-0.26-1.22-0.39-1.74-0.39c0.53-0.25,1.17-0.44,1.94-0.58c0.76-0.13,1.73-0.25,2.88-0.38
	c1.17-0.13,2.19-0.33,3.09-0.58c0.9-0.26,1.61-0.53,2.12-0.77c1.28-0.53,2.19-1.22,2.7-2.12c0.51-0.9,0.2-1.92-0.97-3.09
	c-1.15-1.15-2.43-1.99-3.85-2.5c-1.41-0.51-2.5-0.77-3.27-0.77c-1.81,0-4,0.39-6.56,1.15c-2.83,0.53-6.04,1.35-9.64,2.52
	c-3.59,1.15-6.68,2.24-9.24,3.27c-2.83,1.02-5.15,1.79-6.94,2.32c0.26,0,0.44,0,0.58,0c0.13,0,0.33,0.11,0.58,0.38
	c0.26,0.26,0.51,0.44,0.77,0.58c0.26,0.13,0.39,0.33,0.39,0.58c1.02,1.04,2.17,2.06,3.45,3.09c1.3,1.02,2.76,1.55,4.44,1.55
	c1.68,0,3.14-0.2,4.44-0.59c1.28-0.38,2.3-0.71,3.08-0.95c0,0.25,0,0.71,0,1.35s0,1.35,0,2.12c0,0.77,0,1.41,0,1.92
	c0,0.51,0,1.02,0,1.55c-1.28,0.51-3.03,1.15-5.2,1.92c-2.19,0.77-4.82,1.55-7.91,2.32c-3.08,1.02-5.77,1.79-8.09,2.3
	c-2.32,0.51-4.24,0.9-5.79,1.15v3.87c0.53,0.51,1.04,1.15,1.55,1.92c0.51,0.77,1.28,1.68,2.32,2.7c0.77,0.77,1.6,1.35,2.5,1.74
	c0.9,0.38,1.61,0.58,2.12,0.58c1.04-0.53,2.32-1.1,3.85-1.74c1.55-0.64,3.4-1.41,5.59-2.3c2.19-0.9,4.11-1.68,5.79-2.32
	c1.66-0.64,3.01-1.09,4.05-1.35v2.32c-1.79,1.53-4.11,3.4-6.94,5.58c-2.83,2.19-6.04,4.89-9.64,8.11c-3.6,3.21-6.61,6.1-9.06,8.67
	c-2.43,2.57-4.42,4.88-5.97,6.94c1.04-0.26,2.19-0.51,3.47-0.77c1.28,0,2.7,0,4.24,0c1.55,0,2.94-0.13,4.24-0.38
	c1.02,0,1.99-0.2,2.88-0.59c0.9-0.38,2.12-1.22,3.67-2.5c1.79-1.02,3.67-2.57,5.59-4.62c1.92-2.06,3.4-3.87,4.42-5.39
	c1.04-1.55,1.81-2.7,2.32-3.47c0.26,0.51,0.38,1.28,0.38,2.3c0,1.04,0.13,2.19,0.39,3.47c0,1.28,0.2,2.38,0.58,3.29
	c0.38,0.89,0.71,1.73,0.97,2.5l-6.94,1.55l-1.55-0.77c-0.26,0-0.64,0.18-1.15,0.58c-0.53,0.38-0.9,0.84-1.17,1.35
	c-0.51,0.51-0.82,1.02-0.95,1.55c-0.13,0.51-0.33,0.89-0.58,1.15c0,0.51,0,1.28,0,2.32c0,1.02,0,2.17,0,3.47c0,1.28,0,2.37,0,3.27
	c0,0.89,0,1.73,0,2.5c0.25,1.04,0.38,2.32,0.38,3.85c0,1.55,0.07,3.36,0.2,5.41c0.13,2.06,0.58,3.85,1.35,5.39
	c1.02,1.28,2.19,2.3,3.47,3.08c1.02-0.51,2.3-1.02,3.85-1.55c1.55-0.51,3.21-0.89,5.02-1.15c2.06-0.51,3.72-0.77,5.02-0.77
	c1.53-0.25,2.81-0.38,3.85-0.38l-1.55,2.32c0.26,0.25,0.51,0.76,0.77,1.53c0.26,0.51,0.64,1.17,1.15,1.92
	c0.53,0.77,1.04,1.41,1.55,1.94c0.51,0.25,0.9,0.51,1.15,0.77c0.26-0.02,0.46-0.02,0.59-0.02c0.11,0,0.18,0,0.18,0.02
	c0.26-0.26,0.39-0.39,0.39-0.39c0.25-0.26,0.38-0.38,0.38-0.38c0.51-0.77,1.15-1.41,1.92-1.94c0.77-0.51,1.68-1.02,2.7-1.53
	c1.04-0.53,1.81-1.04,2.32-1.55c0.77-0.77,1.28-1.41,1.55-1.92c0.77-1.28,1.28-2.7,1.55-4.24c0.51-1.79,0.69-3.85,0.58-6.17
	c-0.13-2.32-0.26-4.38-0.39-6.17c-0.13-1.79-0.18-3.21-0.18-4.24c0-0.77,0-1.61,0-2.5c0-0.9,0-2.06,0-3.47
	c0-1.41-0.13-2.63-0.39-3.67c-0.26-1.02-0.64-1.92-1.15-2.7c-0.77-0.77-1.74-1.41-2.89-1.92c-1.15-0.51-2.63-0.77-4.44-0.77
	c-1.79,0-3.34,0.13-4.62,0.38c-1.28,0.26-2.43,0.53-3.47,0.77c0.53-1.02,0.97-2.17,1.35-3.47c0.39-1.28,0.53-2.76,0.39-4.42
	c-0.13-1.68-0.2-3.16-0.2-4.44c0-1.28,0-2.3,0-3.08c0.77,0.51,1.73,1.22,2.89,2.12c1.15,0.89,2.43,1.86,3.85,2.89
	c1.41,1.02,2.63,1.79,3.67,2.3c1.02,0.51,1.99,0.9,2.89,1.15c0.89,0.26,2.12,0.77,3.65,1.55c1.55,0.77,3.34,1.35,5.39,1.74
	c2.06,0.38,3.73,0.07,5.02-0.97c1.28-0.77,2.19-1.79,2.7-3.08c0-0.53-0.2-1.17-0.58-1.94c-0.38-0.76-1.04-1.66-1.92-2.7
	c-0.9-1.02-1.81-1.86-2.7-2.5c-0.9-0.64-1.74-1.09-2.52-1.35c-1.02-0.51-2.43-1.04-4.23-1.55c-1.81-0.51-4-0.89-6.56-1.15
	c-2.57-0.26-4.75-0.26-6.55,0c-2.06,0-3.73,0.13-5.02,0.38c0.26-0.51,0.44-1.09,0.58-1.73c0.13-0.64,0.26-1.41,0.39-2.32
	c0.12-0.89,0.25-1.66,0.38-2.3c0.13-0.64,0.2-1.1,0.2-1.35c0.25,0,0.64-0.07,1.15-0.2c0.51-0.13,1.09-0.26,1.74-0.39
	c0.64-0.12,1.28-0.31,1.92-0.58c0.64-0.25,1.09-0.38,1.35-0.38c0.77-0.26,1.79-0.44,3.08-0.58c1.28-0.13,2.83-0.46,4.64-0.97
	c1.79-0.51,3.01-1.28,3.65-2.32c0.64-1.02,0.97-2.06,0.97-3.08c0-0.26,0-0.44,0-0.58c0-0.13-0.13-0.33-0.39-0.58
	c-0.25-0.26-0.44-0.39-0.58-0.39c-0.13,0-0.31,0-0.58,0c-0.77-1.02-1.79-1.79-3.08-2.3c-1.3-0.53-2.83-0.64-4.64-0.39
	c-1.79,0.26-3.34,0.58-4.62,0.97C727.63,32.39,726.59,32.72,725.84,32.96z"/>
<path d="M806.45,70.74c-0.51,1.55-1.17,3.47-1.92,5.79c-0.77,2.3-1.87,4.95-3.29,7.89c-1.41,2.96-2.94,5.53-4.62,7.71
	c-1.66,2.19-3.27,4.05-4.82,5.59c0,0-0.13,0-0.38,0c0-0.26-0.13-0.39-0.39-0.39c0-0.25,0-0.51,0-0.76c0-0.26,0-0.39,0-0.39
	c-0.77-2.06-1.22-4.49-1.35-7.32c-0.13-2.83,0.2-6.04,0.97-9.64c0.77-3.6,1.41-6.81,1.92-9.64c0.51-2.57,0.77-4.75,0.77-6.56
	c-0.26,0.26-0.51,0.77-0.77,1.55c-0.51,0.51-1.02,1.28-1.55,2.32c-0.51,1.02-0.89,1.92-1.15,2.7c-0.51,0.77-0.9,1.41-1.15,1.92
	c-0.53,0.51-1.23,1.48-2.12,2.89c-0.9,1.41-2.25,2.89-4.05,4.42c-1.55,1.81-2.96,2.96-4.24,3.47c-1.28,0.53-2.45,0.77-3.47,0.77
	c0.77,1.28,1.41,3.03,1.92,5.21c0.51,2.17,1.15,4.56,1.92,7.12c0.53,2.83,1.41,5.15,2.7,6.94c1.28,1.79,2.7,3.34,4.24,4.62
	c0.51,0,1.15-0.11,1.92-0.38c0.77-0.51,1.41-1.28,1.94-2.32c0.76-1.28,1.28-2.3,1.53-3.08c0.53-1.04,0.77-1.68,0.77-1.92
	c1.55,0,3.34-0.53,5.39-1.55c2.06-1.04,4.31-2.89,6.74-5.59c2.45-2.7,4.24-5.13,5.41-7.32c1.15-2.19,1.99-3.8,2.5-4.82
	c0,0.77-0.07,1.86-0.2,3.27c-0.13,1.41-0.25,3.03-0.38,4.82c-0.13,1.79-0.2,3.34-0.2,4.62c0,1.28,0.07,2.39,0.2,3.27
	c0.13,0.9,0.13,1.99,0,3.29c-0.13,1.28-0.07,2.81,0.18,4.62c0.26,1.55,0.9,2.96,1.94,4.24c1.02,1.02,2.06,1.92,3.08,2.7
	c1.28,0.25,2.96,0.51,5.02,0.77c1.79,0.25,3.98,0.38,6.55,0.38c2.83-0.26,5.28-0.51,7.34-0.77c2.06-0.25,3.72-0.38,5-0.38
	c0.77,0,1.55-0.13,2.32-0.39c1.02-0.51,1.79-1.28,2.32-2.3c0.76-1.28,1.15-2.45,1.15-3.47c0-1.04-0.13-1.81-0.39-2.32
	c-0.25-0.51-0.58-0.9-0.95-1.15c-0.39-0.26-0.97-0.39-1.74-0.39c-0.77,0-1.41,0.13-1.92,0.39c-0.51,0-1.02,0.13-1.55,0.38
	c-1.02,0-2.43,0.26-4.23,0.77c-1.81,0.26-3.87,0.64-6.17,1.15c-2.32,0.26-4.38,0.39-6.17,0.39c-1.55-0.26-2.96-0.51-4.24-0.77
	c0-0.77,0-1.55,0-2.32c0-1.02-0.07-2.17-0.2-3.47c-0.13-1.28-0.13-2.3,0-3.08c0.13-0.77,0.2-1.41,0.2-1.92c0.25,0,0.44,0,0.58,0
	c0.13,0,0.31,0,0.58,0c0.26,0,0.51,0,0.77,0c0.26,0,0.38,0,0.38,0c0.77-0.26,1.61-0.64,2.52-1.17c0.89-0.51,1.99-1.22,3.27-2.11
	c1.28-0.9,2.43-1.81,3.47-2.71c1.02-0.89,1.79-1.73,2.32-2.5V80l-2.32-0.77c0.51-0.26,0.9-0.64,1.15-1.15
	c0.51-0.26,1.04-0.66,1.55-1.17c0.51-0.51,1.02-1.02,1.55-1.55c0.51-0.25,0.89-0.51,1.15-0.76c0.51,0.25,1.04,0.64,1.55,1.15
	c0.51,0.51,1.09,1.15,1.73,1.92c0.64,0.77,1.35,1.55,2.12,2.32c0.51,0.51,1.1,1.02,1.74,1.53c0.64,0.53,1.46,1.3,2.5,2.32
	c1.28,1.28,2.57,2.57,3.85,3.85c1.55,1.55,2.83,2.45,3.87,2.71c1.02,0.51,1.99,0.58,2.88,0.18c0.9-0.38,2.01-0.77,3.29-1.15
	c1.28-0.38,2.83-0.71,4.62-0.97c1.79-0.25,3.27-0.64,4.42-1.15c1.17-0.51,2.12-1.15,2.89-1.92c0-0.51-0.18-1.04-0.58-1.55
	c-0.38-0.51-0.9-1.02-1.55-1.55c-0.64-0.51-1.35-1.02-2.12-1.53c-0.76-0.26-1.4-0.53-1.92-0.77c-1.79-0.53-4.05-1.35-6.74-2.52
	c-2.7-1.15-5.9-2.94-9.64-5.39c-3.72-2.43-7.01-4.82-9.82-7.12c-2.83-2.32-5.15-4.24-6.94-5.79c0.25-0.26,0.51-0.44,0.77-0.58
	c0.25-0.13,0.58-0.26,0.95-0.38c0.39-0.13,0.84-0.2,1.35-0.2c0.26-0.26,0.51-0.39,0.77-0.39c0.77-0.51,1.61-0.89,2.5-1.15
	c0.9-0.26,1.99-0.44,3.29-0.58c1.28-0.13,2.43-0.39,3.47-0.77c1.02-0.38,1.79-0.84,2.3-1.35v-3.09c-0.25-0.51-0.71-0.95-1.35-1.35
	c-0.64-0.38-1.35-0.76-2.12-1.15c-0.77-0.38-1.55-0.77-2.3-1.15c-0.77-0.39-1.41-0.71-1.94-0.97c-0.25,0.26-0.76,0.51-1.53,0.77
	c-0.53,0.51-1.17,0.97-1.94,1.35c-0.76,0.39-1.4,0.71-1.92,0.97c-0.51,0.25-1.02,0.51-1.53,0.77c0.25-0.53,0.44-1.17,0.58-1.94
	c0.12-0.76,0.25-1.6,0.38-2.5c0.13-0.9,0.33-1.66,0.58-2.32c0.26-0.64,0.53-1.22,0.77-1.73c0.26-0.26,0.64-0.51,1.15-0.77
	c0.53-0.26,1.1-0.58,1.74-0.95c0.64-0.39,1.28-0.71,1.92-0.97c0.64-0.26,1.1-0.39,1.35-0.39c0.77-0.51,1.55-1.09,2.32-1.73
	c0.77-0.64,1.28-1.48,1.55-2.5c0-1.28-0.26-2.32-0.77-3.09c-0.53-0.77-1.04-1.41-1.55-1.92l-3.85,0.77c0-0.26,0-0.64,0-1.15
	c0-0.26,0.12-0.66,0.38-1.17c0-0.51,0.13-1.02,0.38-1.55c0.26-0.25,0.53-0.51,0.77-0.76c0-0.53-0.07-1.1-0.18-1.74
	c-0.13-0.64-0.39-1.48-0.77-2.5c-0.39-1.04-0.84-1.81-1.35-2.32c-0.53-0.51-1.04-0.9-1.55-1.15c-0.77-0.26-1.68-0.51-2.7-0.77
	c-1.04-0.26-2.32-0.51-3.86-0.77c-1.28,0-2.37,0-3.27,0c-0.89,0-1.73,0-2.5,0h-1.55c0,0.26-0.07,0.51-0.2,0.77
	c-0.12,0.26-0.25,0.58-0.38,0.97c-0.13,0.38-0.2,0.76-0.2,1.15c0,0.38,0.07,0.64,0.2,0.77c0.13,0.13,0.33,0.18,0.58,0.18
	c0.51,0.26,0.9,0.53,1.15,0.77c0.26,0.53,0.53,0.9,0.77,1.17c0.26,0.51,0.39,0.89,0.39,1.15c0,0.51,0,1.15,0,1.92
	c0,0.77,0,1.81,0,3.09c0,1.28,0,2.37,0,3.27c0,0.9,0,1.73,0,2.5l-6.17,1.55v-3.85c-0.51-0.53-1.17-0.97-1.92-1.35
	c-0.77-0.39-1.68-0.77-2.7-1.17c-1.04-0.38-1.94-0.77-2.71-1.15c-0.76-0.38-1.4-0.71-1.92-0.97c-0.25,0-0.51,0.13-0.77,0.39
	c-0.51,0-0.95,0.07-1.35,0.2c-0.38,0.12-0.71,0.18-0.95,0.18c-0.26,0-0.51,0-0.77,0l-0.77,1.55c0.51,0.26,1.04,0.71,1.55,1.35
	c0.51,0.64,0.95,1.48,1.35,2.5c0.38,1.04,0.71,1.94,0.95,2.7c0,0.77,0,1.41,0,1.94l-5.39,2.3l-0.77,2.32
	c0.77,0.25,1.68,0.64,2.7,1.15c1.04,0.77,1.81,1.68,2.32,2.7c0.77,1.28,1.15,2.32,1.15,3.09c0.26,1.02,0.26,1.79,0,2.3v6.17
	c-0.76,0.53-1.66,1.04-2.7,1.55c-1.28,0.51-2.57,1.04-3.85,1.55c-1.55,0.77-2.7,1.55-3.47,2.3c-1.02,0.77-1.79,1.55-2.32,2.32
	c0.53,0.26,1.17,0.84,1.94,1.74c0.76,0.89,1.66,1.86,2.7,2.88c1.02,1.04,1.99,1.55,2.88,1.55
	C804.84,71.52,805.68,71.25,806.45,70.74 M777.16,52.24c0.51,0.51,1.15,1.41,1.92,2.7c0.77,1.28,1.79,2.63,3.08,4.05
	c1.28,1.41,2.57,2.25,3.87,2.52c1.02,0.25,1.92,0.25,2.7,0c0.51-1.28,0.64-2.83,0.38-4.64c-0.26-1.79-1.35-3.59-3.27-5.39
	c-1.92-1.79-3.87-2.76-5.79-2.88c-1.92-0.13-3.4,0.05-4.42,0.58c0.25,0,0.44,0.13,0.58,0.38c0.13,0.26,0.31,0.51,0.58,0.77
	c0.26,0.26,0.39,0.58,0.39,0.97C777.16,51.66,777.16,51.99,777.16,52.24z M781.78,23.72h-1.55c0.26,0.25,0.58,0.64,0.97,1.15
	c0.38,0.51,0.76,1.1,1.15,1.74c0.38,0.64,0.71,1.22,0.97,1.73c0.25,0.51,0.58,0.97,0.95,1.35c0.39,0.39,0.97,0.97,1.74,1.74
	c0.76,1.02,1.73,2.17,2.88,3.47c1.17,1.28,2.12,2.06,2.89,2.3c1.04,0.51,1.81,0.64,2.32,0.39c1.55-1.04,2.43-2.7,2.7-5.02
	c0.25-2.32-0.77-4.75-3.09-7.32c-2.06-2.32-4.23-3.47-6.55-3.47C784.86,21.79,783.06,22.44,781.78,23.72z M818.01,76.14
	c0.51,0,1.02,0,1.55,0c0.51,0,1.09,0,1.73,0c0.64,0,1.22,0,1.74,0c0.51,0,0.89,0,1.15,0c0,0.53-0.2,1.17-0.58,1.94
	c-0.39,0.76-0.9,1.66-1.55,2.7c-0.64,1.02-1.35,1.86-2.12,2.5c-0.77,0.64-1.41,1.09-1.92,1.35V76.14z M828.8,67.67
	c-0.77-0.26-1.73-0.33-2.89-0.2c-1.15,0.13-2.57,0.58-4.23,1.35c-1.68,0.77-3.16,1.28-4.44,1.55c-1.28,0.25-2.32,0.38-3.08,0.38
	c0-1.02,0.25-2.06,0.76-3.08c0.53-1.04,1.48-1.92,2.89-2.7c1.41-0.77,2.7-1.28,3.87-1.55c1.15-0.26,1.99-0.39,2.5-0.39
	c0.26,0.26,0.64,0.53,1.15,0.77c0.51,0.53,1.1,1.04,1.74,1.55c0.64,0.51,1.09,0.9,1.35,1.15c0.51,0.53,0.89,0.9,1.15,1.17
	c0,0-0.07,0-0.2,0C829.25,67.67,829.07,67.67,828.8,67.67z M818.79,47.62c0.25,0,0.64-0.07,1.15-0.2c0.51-0.13,1.09-0.31,1.74-0.58
	c0.64-0.26,1.15-0.51,1.53-0.77c0.39-0.25,0.71-0.51,0.97-0.77l-0.77,6.94c-0.26,0-0.51,0.13-0.77,0.39c-0.51,0-1.02,0.07-1.55,0.18
	c-0.51,0.13-0.89,0.33-1.15,0.59c-0.51,0-0.9,0.11-1.15,0.38c0-0.51,0-1.04,0-1.55s0-1.09,0-1.73c0-0.64,0-1.22,0-1.74
	C818.79,48.26,818.79,47.88,818.79,47.62z"/>
<path d="M645.13,16.76c3.08-2.75,5.98-6.15,10.07-7.36c-1.32,4.08-4.13,7.43-6,11.26c-9.06,17.46-12.26,37.95-9,57.35
	c2.11,12.84,8.31,24.52,15.18,35.39c-2.25,0.42-3.78-1.45-5.37-2.66c-12.06-10-20.49-24.38-22.79-39.92
	C624.11,51.32,630.81,30.45,645.13,16.76"/>
<path d="M904.32,16.76c-3.07-2.75-5.98-6.15-10.07-7.36c1.32,4.08,4.13,7.43,6,11.26c9.06,17.46,12.26,37.95,9,57.35
	c-2.11,12.84-8.31,24.52-15.18,35.39c2.25,0.42,3.78-1.45,5.37-2.66c12.06-10,20.49-24.38,22.79-39.92
	C925.35,51.32,918.64,30.45,904.32,16.76"/>
</svg>
