<svg width="226" height="56" viewBox="0 0 226 56" fill="none" xmlns="http://www.w3.org/2000/svg">
<path fill-rule="evenodd" clip-rule="evenodd" d="M10 28.0002L30.1552 8L44.109 21.6506C40.9096 21.6506 38.2199 19.4286 35.1165 19.4286C31.3957 19.1113 27.6746 20.3808 25.5039 21.3333C27.8033 21.2964 30.0177 21.2514 31.9857 21.8429C35.7427 22.9719 38.9828 25.1429 42.8689 25.1429C43.7986 25.1429 45.3491 24.8252 46.5893 24.1907L49.6903 27.3649C47.8298 27.6825 43.7986 28.3171 39.7674 26.7304C34.7147 24.5121 30.6058 25.1272 25.5039 27.3649C27.3645 27.3649 29.5351 27.3649 31.3957 27.6825C34.1864 28.0002 35.7366 28.6347 38.5272 29.9046C40.3878 30.8568 41.6283 31.1748 42.8689 31.1748C44.7287 31.1748 47.8298 29.9046 50 28.6347L44.7287 33.7145C43.1785 33.7145 41.6283 33.3964 39.7674 32.4443C37.5971 31.4917 35.7366 31.1748 35.1165 31.1748C31.3957 30.8568 27.6746 32.127 25.5039 33.3964C30.3971 33.3964 34.0268 33.8885 38.5272 35.9365C39.7674 36.5714 40.6979 36.8887 41.6283 36.8887L30.1552 48L10 28.0002Z" fill="#1F467A"/>
<path d="M74.5791 14.8044V20.7533H73.9986C73.6505 19.3764 73.2689 18.3922 72.8488 17.7954C72.4287 17.1928 71.8482 16.7171 71.1127 16.3633C70.7037 16.1645 69.985 16.0704 68.9623 16.0704H67.3257V33.0102C67.3257 34.1323 67.3866 34.8346 67.5081 35.1165C67.6353 35.3983 67.8787 35.6417 68.2379 35.852C68.6028 36.0675 69.0948 36.1727 69.7195 36.1727H70.4492V36.7695H58.9498V36.1727H59.6796C60.3153 36.1727 60.8295 36.0565 61.2164 35.8299C61.4987 35.6806 61.7196 35.4204 61.8799 35.0502C62.0014 34.7958 62.0623 34.1159 62.0623 33.0102V16.0704H60.4703C58.994 16.0704 57.9157 16.38 57.2469 17.0104C56.3069 17.8837 55.7154 19.1334 55.4667 20.7533H54.8531V14.8044H74.5791ZM88.4784 21.6266V33.4799C88.4784 34.6354 88.5831 35.3599 88.7991 35.6417C89.0147 35.9293 89.4512 36.1117 90.1146 36.189V36.7695H83.9391V34.7459C83.2151 35.6086 82.4964 36.2389 81.7719 36.6312C81.0479 37.0239 80.2351 37.2231 79.3393 37.2231C78.488 37.2231 77.7304 36.963 77.067 36.4377C76.4039 35.9125 75.956 35.2989 75.7293 34.597C75.5027 33.8946 75.3865 32.6728 75.3865 30.9204V24.9105C75.3865 23.7664 75.2814 23.0587 75.0712 22.7765C74.8613 22.4946 74.4244 22.3122 73.7556 22.2238V21.6266H79.9254V31.9762C79.9254 33.0544 79.9753 33.751 80.0801 34.066C80.1799 34.3757 80.3402 34.6133 80.5668 34.7794C80.7877 34.9398 81.0422 35.0224 81.3351 35.0224C81.7224 35.0224 82.0705 34.9173 82.3859 34.7128C82.8171 34.4309 83.3366 33.8672 83.9391 33.0102V24.9105C83.9391 23.7664 83.8344 23.0587 83.6241 22.7765C83.4139 22.4946 82.9774 22.3122 82.3029 22.2238V21.6266H88.4784ZM98.5846 21.6266V25.0598C99.5908 23.4952 100.47 22.4558 101.222 21.9416C101.979 21.4278 102.709 21.1734 103.411 21.1734C104.014 21.1734 104.5 21.3558 104.86 21.7317C105.224 22.1019 105.401 22.6272 105.401 23.3074C105.401 24.0315 105.23 24.5955 104.876 24.9936C104.528 25.3916 104.102 25.5961 103.605 25.5961C103.035 25.5961 102.538 25.4083 102.118 25.0434C101.692 24.6729 101.443 24.4683 101.371 24.4295C101.261 24.3632 101.139 24.3301 100.995 24.3301C100.685 24.3301 100.387 24.4462 100.105 24.6839C99.6628 25.0545 99.3311 25.5797 99.1045 26.2596C98.756 27.3047 98.5846 28.4599 98.5846 29.7259V33.2037L98.6013 34.1159C98.6013 34.7295 98.6398 35.1222 98.7118 35.2936C98.8443 35.5865 99.0325 35.8021 99.2869 35.9346C99.5409 36.0729 99.9725 36.1559 100.575 36.189V36.7695H92.398V36.189C93.0561 36.1338 93.4983 35.9514 93.7303 35.6417C93.9626 35.3378 94.0788 34.525 94.0788 33.2037V24.8332C94.0788 23.9709 94.0399 23.4179 93.9516 23.1802C93.8411 22.8763 93.6861 22.655 93.4816 22.5167C93.2771 22.3731 92.9122 22.279 92.398 22.2238V21.6266H98.5846ZM113.567 21.1734C114.883 21.1734 116.111 21.5104 117.244 22.1907C118.377 22.8705 119.239 23.838 119.826 25.093C120.417 26.3426 120.71 27.7138 120.71 29.2064C120.71 31.3569 120.168 33.1538 119.074 34.597C117.758 36.3494 115.939 37.2231 113.617 37.2231C111.339 37.2231 109.581 36.4214 108.354 34.8236C107.121 33.2258 106.507 31.3736 106.507 29.2727C106.507 27.1002 107.138 25.2091 108.393 23.595C109.653 21.9804 111.378 21.1734 113.567 21.1734ZM113.634 22.3232C113.081 22.3232 112.611 22.5278 112.218 22.9479C111.82 23.3626 111.56 24.1808 111.439 25.4083C111.312 26.6355 111.251 28.3384 111.251 30.5166C111.251 31.6722 111.328 32.7501 111.478 33.7564C111.599 34.525 111.854 35.1054 112.241 35.5034C112.627 35.9072 113.07 36.106 113.567 36.106C114.054 36.106 114.457 35.9677 114.784 35.7027C115.204 35.3321 115.486 34.8179 115.624 34.1601C115.839 33.1371 115.95 31.064 115.95 27.9404C115.95 26.1049 115.845 24.8443 115.641 24.1587C115.436 23.4731 115.132 22.9757 114.734 22.6607C114.452 22.4337 114.087 22.3232 113.634 22.3232ZM129.197 21.6266V23.5839C129.976 22.7433 130.723 22.1297 131.436 21.7481C132.144 21.3611 132.912 21.1734 133.736 21.1734C134.714 21.1734 135.533 21.4442 136.179 21.9915C136.826 22.5335 137.258 23.2133 137.473 24.0204C137.65 24.6397 137.733 25.8227 137.733 27.5698V33.4635C137.733 34.6301 137.838 35.3599 138.048 35.6417C138.258 35.9293 138.7 36.1117 139.37 36.189V36.7695H131.707V36.189C132.282 36.1117 132.691 35.874 132.94 35.476C133.111 35.2048 133.199 34.536 133.199 33.4635V26.7296C133.199 25.4856 133.15 24.7007 133.056 24.38C132.956 24.0536 132.79 23.8048 132.558 23.6281C132.326 23.4457 132.072 23.3569 131.79 23.3569C130.861 23.3569 129.998 24.0204 129.197 25.3531V33.4635C129.197 34.597 129.302 35.3157 129.512 35.6196C129.727 35.9236 130.115 36.1117 130.689 36.189V36.7695H123.027V36.189C123.663 36.1228 124.116 35.9182 124.387 35.5697C124.569 35.3321 124.663 34.6301 124.663 33.4635V24.9105C124.663 23.7664 124.558 23.0587 124.348 22.7765C124.138 22.4946 123.696 22.3122 123.027 22.2238V21.6266H129.197ZM155.099 25.1261C157.183 25.6071 158.648 26.1986 159.488 26.8899C160.699 27.8741 161.302 29.1455 161.302 30.7101C161.302 32.3631 160.638 33.7289 159.311 34.8125C157.68 36.117 155.308 36.7695 152.201 36.7695H141.039V36.1727C142.056 36.1727 142.742 36.0786 143.107 35.8851C143.466 35.6969 143.721 35.4539 143.864 35.1496C144.014 34.8457 144.086 34.1049 144.086 32.9162V18.6634C144.086 17.4747 144.014 16.7282 143.864 16.4185C143.721 16.1089 143.461 15.8659 143.096 15.6834C142.731 15.4953 142.045 15.4069 141.039 15.4069V14.8044H151.566C154.081 14.8044 155.867 15.031 156.912 15.4789C157.962 15.9264 158.786 16.5956 159.389 17.4857C159.997 18.3758 160.295 19.3269 160.295 20.3274C160.295 21.3889 159.914 22.3286 159.145 23.1581C158.383 23.9819 157.033 24.6397 155.099 25.1261ZM149.205 24.6839C150.736 24.6839 151.864 24.5125 152.594 24.1697C153.324 23.8216 153.882 23.3348 154.275 22.7102C154.662 22.0856 154.855 21.2838 154.855 20.3107C154.855 19.3433 154.662 18.5472 154.28 17.9226C153.899 17.3033 153.352 16.8333 152.638 16.5073C151.925 16.1808 150.781 16.0262 149.205 16.0372V24.6839ZM149.205 25.9499V32.9935L149.188 33.8063C149.188 34.3867 149.332 34.8289 149.631 35.1275C149.929 35.4204 150.366 35.5697 150.952 35.5697C151.814 35.5697 152.611 35.382 153.34 34.995C154.07 34.6133 154.629 34.055 155.016 33.3252C155.408 32.6012 155.602 31.7884 155.602 30.8926C155.602 29.8642 155.364 28.941 154.888 28.1282C154.413 27.3158 153.761 26.746 152.926 26.4199C152.097 26.0939 150.853 25.9389 149.205 25.9499ZM171.944 34.536C170.098 36.1669 168.439 36.9797 166.969 36.9797C166.106 36.9797 165.387 36.6979 164.818 36.1281C164.243 35.5644 163.961 34.851 163.961 33.9998C163.961 32.8442 164.453 31.8048 165.448 30.8815C166.443 29.9583 168.605 28.7311 171.944 27.1996V25.6734C171.944 24.5293 171.883 23.8106 171.756 23.5119C171.635 23.2133 171.397 22.9536 171.054 22.7323C170.706 22.5114 170.319 22.4005 169.888 22.4005C169.185 22.4005 168.605 22.5609 168.152 22.8705C167.875 23.064 167.731 23.2907 167.731 23.5508C167.731 23.7774 167.881 24.0593 168.185 24.3963C168.594 24.861 168.804 25.3085 168.804 25.7401C168.804 26.2706 168.605 26.7185 168.213 27.0945C167.814 27.4647 167.3 27.6528 166.664 27.6528C165.984 27.6528 165.415 27.4426 164.956 27.0335C164.497 26.6245 164.265 26.1434 164.265 25.5961C164.265 24.8168 164.574 24.0756 165.188 23.368C165.807 22.6607 166.664 22.1187 167.765 21.7371C168.865 21.3611 170.009 21.1734 171.198 21.1734C172.635 21.1734 173.769 21.4773 174.609 22.0856C175.444 22.6992 175.985 23.3569 176.235 24.0703C176.389 24.5236 176.461 25.5687 176.461 27.1996V33.0765C176.461 33.7674 176.489 34.2043 176.544 34.3814C176.599 34.5581 176.677 34.6907 176.787 34.7794C176.892 34.8621 177.02 34.9062 177.158 34.9062C177.44 34.9062 177.727 34.7074 178.02 34.3094L178.501 34.6964C177.965 35.4981 177.407 36.0786 176.826 36.4377C176.251 36.7973 175.593 36.9797 174.858 36.9797C173.995 36.9797 173.321 36.7752 172.834 36.3715C172.348 35.9677 172.049 35.3541 171.944 34.536ZM171.944 33.353V28.2832C170.639 29.0518 169.666 29.8699 169.031 30.7433C168.605 31.3294 168.395 31.9156 168.395 32.5071C168.395 33.0045 168.572 33.4414 168.931 33.8226C169.202 34.1159 169.578 34.2595 170.064 34.2595C170.606 34.2595 171.231 33.9556 171.944 33.353ZM186.357 21.6266V23.5839C187.137 22.7433 187.883 22.1297 188.597 21.7481C189.304 21.3611 190.073 21.1734 190.896 21.1734C191.875 21.1734 192.693 21.4442 193.34 21.9915C193.987 22.5335 194.418 23.2133 194.634 24.0204C194.811 24.6397 194.894 25.8227 194.894 27.5698V33.4635C194.894 34.6301 194.999 35.3599 195.209 35.6417C195.419 35.9293 195.861 36.1117 196.53 36.189V36.7695H188.867V36.189C189.442 36.1117 189.852 35.874 190.1 35.476C190.272 35.2048 190.36 34.536 190.36 33.4635V26.7296C190.36 25.4856 190.31 24.7007 190.217 24.38C190.117 24.0536 189.951 23.8048 189.719 23.6281C189.487 23.4457 189.232 23.3569 188.95 23.3569C188.022 23.3569 187.159 24.0204 186.357 25.3531V33.4635C186.357 34.597 186.463 35.3157 186.672 35.6196C186.888 35.9236 187.275 36.1117 187.85 36.189V36.7695H180.187V36.189C180.823 36.1228 181.277 35.9182 181.547 35.5697C181.73 35.3321 181.824 34.6301 181.824 33.4635V24.9105C181.824 23.7664 181.719 23.0587 181.509 22.7765C181.299 22.4946 180.856 22.3122 180.187 22.2238V21.6266H186.357ZM204.773 14.8044V29.2563L208.289 25.8063C209.014 25.104 209.467 24.5955 209.644 24.2802C209.821 23.9709 209.909 23.6666 209.909 23.3737C209.909 23.0808 209.793 22.8374 209.556 22.6439C209.318 22.4504 208.854 22.3122 208.162 22.2238V21.6266H214.946V22.2238C214.299 22.257 213.735 22.4116 213.249 22.6881C212.762 22.9589 211.811 23.7885 210.396 25.1703L208.743 26.7905L212.309 32.0093C213.746 34.1213 214.598 35.31 214.869 35.5697C215.234 35.9403 215.698 36.1448 216.262 36.189V36.7695H208.439V36.189C208.782 36.189 209.03 36.1228 209.191 35.9902C209.346 35.863 209.423 35.7247 209.423 35.5697C209.423 35.321 209.196 34.8621 208.743 34.1932L205.746 29.8036L204.773 30.76V33.4799C204.773 34.6354 204.884 35.3599 205.1 35.6417C205.315 35.9293 205.757 36.1117 206.426 36.189V36.7695H198.603V36.189C199.239 36.1228 199.692 35.9182 199.964 35.5697C200.151 35.3321 200.24 34.6354 200.24 33.4799V18.094C200.24 16.9494 200.135 16.2361 199.925 15.9542C199.714 15.6777 199.272 15.4899 198.603 15.4069V14.8044H204.773Z" fill="#1F467A"/>
<path d="M54.8453 40.8762H216.255V41.5905H54.8453V40.8762Z" fill="#1F467A"/>
</svg>
